<?xml version="1.0" encoding="UTF-8" standalone="no"?><!DOCTYPE svg PUBLIC "-//W3C//DTD SVG 1.1//EN" "http://www.w3.org/Graphics/SVG/1.1/DTD/svg11.dtd"><svg width="100%" height="100%" viewBox="0 0 717 432" version="1.1" xmlns="http://www.w3.org/2000/svg" xmlns:xlink="http://www.w3.org/1999/xlink" xml:space="preserve" xmlns:serif="http://www.serif.com/" style="fill-rule:evenodd;clip-rule:evenodd;stroke-linejoin:round;stroke-miterlimit:2;"><path d="M0,0l262.5,0c0,37.938 -30.813,68.75 -68.75,68.75l-193.75,0l0,-68.75Z" style="fill:#aa1e30;fill-rule:nonzero;"/><path d="M6.844,228.625c-1.125,-0.438 -2.25,-0.906 -2.938,-1.344c-2.031,-1.344 -3.593,-3.375 -3.156,-5.844l1.125,-6.531c0.687,-4.062 1.562,-11.469 3.156,-15.312c0.219,-3.813 1.563,-7.438 2.469,-11.032l4.937,-16.656c0.907,-3.156 1.813,-6.531 3.375,-9.687l0.688,-2.469c0.687,-2.687 1.344,-5.406 2.25,-8.094c0.437,-1.812 1.344,-3.375 2.031,-5.187c0.688,-0.907 1.344,-2.032 1.344,-3.156c-0.219,-2.469 0.687,-4.719 1.812,-6.969c0.688,-1.125 0.907,-2.469 1.344,-3.594c0.219,-2.031 1.125,-3.812 1.813,-5.844c2.031,-6.75 3.375,-13.281 4.718,-20.031c0.219,-0.906 0.438,-1.812 1.125,-2.469c0.688,-0.687 1.125,-0.906 2.032,-0.687c0.906,0.687 2.031,0.906 2.687,1.812c0.906,0.907 1.813,1.563 2.938,2.032c1.125,0.687 2.25,1.125 2.937,2.25c1.125,1.343 1.563,1.343 2.688,2.468c0.687,0.907 1.125,1.563 1.125,2.938c-0,0.687 -0.907,5.844 -0.219,6.969c1.562,-1.563 4.937,-6.532 6.062,-8.313c1.125,-1.344 2.25,-2.25 3.594,-3.375c0.906,-1.344 2.25,-2.031 2.688,-3.594c3.593,-3.593 7.187,-6.968 12.156,-8.312c2.937,-0.688 5.625,-0 8.312,0.437c0.438,0 0.907,0.438 1.344,0.907l4.938,3.812c0.906,0.688 1.812,1.344 2.687,2.25c0.438,0.219 0.906,0.688 0.906,1.125c0.219,1.344 2.032,1.125 2.469,2.469l0.688,2.031c-2.938,0 -5.625,-0.437 -7.657,0.438c-2.468,0.906 -4.5,2.468 -6.531,4.499c-1.344,1.344 -3.156,2.688 -4.937,4.063c-1.563,1.344 -2.688,3.375 -3.813,4.719c-1.344,1.562 -2.25,3.156 -3.594,4.718c-0.906,0.907 -1.812,2.032 -3.375,2.25c-1.125,0 -1.125,0.219 -1.125,1.563c0.219,1.125 -0.437,1.813 -0.906,2.469c-0.906,1.344 -2.25,2.25 -2.687,3.375l-2.25,2.937c-1.563,2.25 -2.938,4.719 -4.719,6.969c-2.469,3.813 -4.281,7.656 -6.75,11.25c-2.031,3.813 -3.375,7.875 -5.844,11.031c-0.687,0.688 -0.906,1.344 -1.125,2.25c-0.437,2.031 -0.687,4.281 -2.25,6.313c-0.687,2.469 -2.031,4.719 -2.687,7.437c-0.438,1.563 -1.125,2.938 -1.813,4.281c-0.687,0.907 -1.125,2.25 -1.562,3.375c-2.032,6.532 -3.813,16.188 -6.063,22.282c-1.125,3.375 -2.031,7.187 -2.687,10.562c-1.563,5.188 -2.032,3.813 -5.844,2.688c-2.688,-0.688 -5.188,-1.813 -7.875,-2.469l-0.031,0Z" style="fill:#231f20;fill-rule:nonzero;"/><path d="M75.031,227.281c-4.5,-2.937 -7.656,-6.969 -9.437,-11.937c-1.125,-2.688 -2.032,-5.406 -1.813,-8.313c0,-0.218 -0.219,-0.687 -0.687,-0.687l-0,-0.906c1.343,-0.907 1.812,-2.032 1.125,-3.594c-0.438,-1.344 -0.688,-2.688 -0.219,-3.813c0.687,-2.937 0.906,-5.844 1.562,-8.781c0.438,-2.688 0.907,-5.625 1.563,-8.313c0.687,-3.156 1.812,-6.531 2.469,-9.687c2.031,-7.656 4.718,-15.063 7.656,-22.281c0.906,-1.813 1.562,-3.375 2.25,-4.938c0.687,-2.25 1.562,-4.062 2.937,-5.843c0.219,-0.688 0.688,-1.125 0.907,-1.813c1.812,-5.187 5.406,-9.437 8.093,-13.937c1.125,-1.813 2.25,-3.375 3.375,-4.938c2.469,-3.375 5.407,-6.531 8.563,-9.437c2.687,-2.688 5.625,-5.188 9.437,-6.532c2.688,-1.125 5.188,-1.125 8.094,-0.906c0.219,0.219 0.688,0.438 1.125,0.438c4.938,-0 8.782,2.687 12.157,5.843c3.593,3.375 6.749,6.75 10.124,10.125c2.469,2.469 3.594,4.719 4.282,8.094l-0,1.563c-0.219,4.281 -0.688,8.312 -3.157,11.687c-0.437,0.438 -0.687,1.125 -1.125,1.813c-0.218,0.437 -0.906,0.437 -1.125,-0c-0.687,-0.438 -1.125,-1.125 -1.562,-1.563c-0.688,-0.906 -1.344,-1.562 -2.469,-1.812c-2.687,-1.125 -5.187,-2.469 -7.187,-4.5c-0.438,-0.688 -1.125,-1.125 -1.563,-1.813c-0.687,-1.344 -0.906,-2.469 -0.219,-4.062l2.032,-5.407c0.437,-1.562 1.125,-3.156 0.906,-4.937c-0,-0.438 -0.219,-0.906 -0.906,-0.906c-2.688,-0.438 -4.938,0.218 -7.438,1.562c-1.344,0.688 -2.937,1.563 -4.062,2.688c-2.688,2.687 -5.406,5.406 -8.094,7.875l-1.125,1.343c-2.469,3.594 -4.938,7.438 -7.438,11.25l-1.562,2.032c-0.906,1.125 -1.344,2.468 -2.031,3.812c-0.438,0.688 -0.688,1.563 -1.344,2.25c-0.906,1.125 -1.563,2.469 -2.031,3.813c-1.125,3.156 -2.688,6.062 -4.282,9c-0.687,1.562 -1.343,3.156 -1.562,4.718c-0.906,3.157 -2.25,5.844 -3.375,8.563c-0.219,0.687 -0.688,1.125 -0.688,1.562c0.001,2.938 -1.124,5.407 -1.812,8.313c-1.344,4.937 -2.469,10.125 -3.375,15.312c-0.688,2.938 -0.688,6.063 -1.125,9c-0.688,2.688 -0.438,5.625 -0.438,8.313c-0.218,0.687 -0.218,1.125 0.001,1.562c0.218,1.125 -0.219,2.938 1.343,3.375c0.906,0.438 2.031,-0.906 2.688,-1.562c4.281,-3.813 8.312,-7.656 11.468,-12.375l4.719,-7.438c1.344,-2.687 2.688,-5.406 3.594,-8.093c1.563,-3.813 2.688,-7.875 4.281,-11.688c0.906,-2.937 1.813,-5.625 2.938,-8.312c1.125,-2.938 2.468,-5.188 2.937,-8.094c1.125,-4.5 3.813,-12.156 5.406,-16.438c0,-0.437 0.438,-0.906 0.688,-1.343c0.906,-1.563 1.344,-1.813 2.937,-0.688c0.688,0.438 1.344,0.906 2.032,1.125c2.687,1.344 4.937,3.156 7.187,5.187l4.063,3.157c0.906,0.906 1.125,2.031 0.687,3.156c-0.146,0.146 -0.219,0.292 -0.219,0.438c-2.25,3.593 -4.718,10.562 -5.406,14.625c-0.437,2.468 -1.125,5.187 -2.031,7.437c-1.344,3.812 -2.25,7.656 -2.688,11.687c-0.218,2.938 -0.687,5.625 -0.906,8.563c-0.219,1.125 -0.687,2.25 -0.906,3.375c-0.219,0.437 -0.438,0.906 -0.438,1.344c0.219,3.593 -0.218,7.187 -0.218,10.812c0.218,0.219 0.687,0.688 0.906,0.438c0.146,-0 0.292,-0.073 0.437,-0.219c4.5,-3.156 6.75,-7.188 9.688,-11.938c1.562,-2.468 3.375,-4.5 4.937,-6.968c1.125,-3.594 4.063,-7.188 5.407,-11.25c2.937,-8.782 6.312,-13.719 8.562,-18.688c0.438,-1.562 0.906,-2.937 2.031,-4.281c0.438,-0.219 0.907,-0.438 1.344,-0.219c0.906,0.438 1.813,0.688 2.688,1.344c3.812,2.25 7.437,4.719 11.25,6.969c1.125,0.906 1.562,1.812 1.125,3.156c-0.688,2.031 -3.813,7.875 -4.5,10.125c-0.688,1.562 -1.344,3.156 -1.813,4.719c-0.687,1.812 -1.562,3.812 -2.469,5.625l-2.937,5.406c-0.906,2.031 -2.031,3.594 -3.156,5.406c-1.344,2.688 -2.469,4.719 -3.594,7.657c-2.469,2.937 -4.281,6.531 -6.969,9.437c-2.687,2.469 -5.406,5.187 -8.781,6.75c-2.938,1.344 -5.844,1.344 -8.781,0.687c-2.938,-0.687 -4.063,-2.031 -6.75,-3.375c-2.032,-1.125 -4.282,-2.031 -6.532,-3.156c-0.687,-0.437 -1.343,-0.906 -2.031,-1.125c-1.125,-0.437 -1.562,-1.812 -2.937,-1.812c-0.688,0.687 -1.125,1.562 -1.813,2.468c-1.125,1.125 -2.031,2.25 -3.375,2.938c-0.687,0.437 -1.344,1.125 -1.812,1.562c-1.344,1.813 -2.938,2.938 -4.5,4.282c-0.688,0.437 -1.344,0.906 -1.813,1.344c-2.937,1.812 -5.844,2.031 -9,0.687c-4.937,-2.031 -9.906,-4.281 -14.406,-7.188l0.031,0.094Z" style="fill:#231f20;fill-rule:nonzero;"/><path d="M176.719,230.219c-4.719,-2.031 -9.438,-4.063 -13.719,-6.531c-7.187,-4.063 -11.469,-10.563 -13.5,-18.688c-0.438,-2.469 -0.219,-5.188 -0.438,-7.656c0,-5.844 0.438,-9.438 1.813,-15.063c0.437,-1.812 0.687,-3.812 1.812,-5.406c0.438,-1.125 0.219,-2.469 0.688,-3.813c1.812,-5.187 1.562,-7.656 4.719,-12.156c0.218,-0.219 0.437,-0.687 0.437,-1.125c0.438,-3.594 2.469,-6.75 4.281,-9.906c2.032,-4.063 4.5,-8.094 6.75,-12.156c0.688,-1.563 1.563,-2.938 2.469,-4.281c2.032,-3.375 4.063,-6.532 5.844,-9.688c1.813,-2.938 4.281,-5.625 6.313,-8.313c0.437,-0.687 0.906,-1.124 1.343,-1.343c1.563,-0.906 2.688,-2.25 3.594,-3.594l3.375,-3.812c0.219,-0.438 0.688,-0.688 1.125,-1.125c1.813,-1.125 3.813,-2.469 5.844,-3.594c1.344,-0.688 2.687,-1.563 4.5,-0.438l0.687,0c0.907,-0.906 2.032,0.219 2.938,-0.218c0.906,-0.688 2.031,-0.438 2.937,0.218c0.907,0.438 2.032,0.907 2.688,1.563c2.687,2.25 5.625,4.5 8.312,6.968c1.125,1.344 2.25,2.469 3.594,3.375c0.906,0.438 1.344,1.125 2.031,2.032c1.344,1.562 2.25,3.593 2.25,5.843c0.219,4.5 -0.906,10.813 -1.812,14.844c-0.906,4.063 -2.938,8.094 -4.719,12.156c-0.906,1.563 -1.812,3.157 -2.937,4.719c-0.907,1.344 -1.563,2.688 -3.157,4.063c-0.437,0.906 -1.343,1.125 -2.25,0.687c-2.25,-1.125 -3.812,-2.25 -6.062,-3.375c0.437,-2.031 -2.25,-1.344 -3.375,-2.031c-1.125,-0.688 -2.688,-1.813 -3.594,-2.688c-1.125,-1.812 1.813,-2.468 4.063,-7.437c0.687,-0.906 2.937,-5.844 3.593,-6.75c2.938,-5.188 3.375,-10.125 4.063,-15.75c-0,-0.688 0.219,-2.031 -1.125,-2.25l-0.688,-0l-0.906,0.687c-2.031,1.563 -4.062,2.938 -5.625,4.719l-3.375,3.156c-0.687,0.438 -1.125,1.125 -1.562,1.813c-2.032,3.594 -4.719,6.75 -7.188,10.125c-0.219,0.437 -0.437,1.125 -0.906,1.562c-1.813,1.563 -2.688,3.375 -3.594,5.407c-1.344,2.937 -2.687,5.625 -4.5,8.093c-0.906,1.125 -1.125,2.688 -2.031,3.813c-0.906,1.125 -2.031,2.25 -2.688,3.594c-0.687,1.344 -0.687,2.937 -1.343,4.062c-0.907,2.25 -1.813,4.063 -3.157,6.313c-0.687,1.125 -2.687,8.094 -3.812,10.812c-1.344,2.469 -1.563,5.188 -2.25,7.875c-0.219,-0.219 -0.438,2.031 -1.563,3.813c0,0.437 -0.218,0.906 0,1.125c0.438,1.562 0,2.937 -0.218,4.281c-0.438,4.937 -0.688,10.125 -0.219,15.062c0.219,2.032 1.125,4.063 1.812,6.063c0.219,0.687 0.907,1.125 1.813,1.344c2.687,-0 3.375,0.218 6.062,-0.438c2.938,-0.687 5.407,-1.812 8.094,-2.937c6.75,-2.938 12.375,-7.438 17.781,-12.375l5.188,-5.188c0.437,-0.437 0.906,-1.125 1.344,-1.344c2.25,-0.906 3.375,-2.687 4.5,-4.718l10.812,-13.282c3.594,-6.062 7.656,-11.687 11.688,-17.312c0.687,-0.906 1.343,-1.125 2.031,-0.438c1.562,0.907 2.937,2.032 4.5,2.938c0.687,0.437 1.125,1.125 1.812,1.562c0.75,0.459 1.354,1.136 1.813,2.032c0.687,1.125 1.562,2.031 3.156,1.812c0.438,0 1.125,0.438 1.813,0.688c1.125,0.687 1.343,1.812 0.687,2.937c-2.469,3.375 -4.719,6.969 -6.062,11.031c-1.563,2.032 -2.938,4.063 -4.282,6.063c-0.218,0.437 -0.437,0.906 -0.906,1.125l-5.187,5.844l-6.75,8.093c-0.907,1.344 -2.032,2.688 -3.375,3.594c-0.438,0.219 -0.688,0.688 -0.907,0.906c-1.812,2.688 -4.281,4.719 -6.75,6.75c-3.812,3.157 -7.656,6.532 -11.937,8.782c-3.375,1.812 -6.969,2.937 -10.344,4.5c-1.344,0.687 -3.156,0.906 -4.719,0.906c-5.406,0.437 -8.562,-0.219 -13.281,-2.469l-0.156,-0.062Z" style="fill:#231f20;fill-rule:nonzero;"/><path d="M251.406,230.656c-4.281,-2.031 -8.781,-4.062 -12.812,-6.312c-3.156,-1.563 -5.844,-4.063 -7.656,-7.188c-0.907,-1.562 -2.032,-3.156 -2.688,-4.937c-0.906,-2.688 -1.344,-5.406 -1.344,-8.094c0,-2.031 -0.219,-4.063 0.219,-6.062c0.437,-3.375 0.219,-6.532 1.125,-9.688c0.219,-1.562 0.219,-3.375 0.687,-4.937c0.438,-1.813 0.907,-3.594 1.563,-5.188c0.219,-0.906 0.437,-1.812 0.437,-2.687c-0.218,-1.563 0.219,-3.375 0.438,-4.938c0.687,-2.937 1.344,-6.062 2.687,-8.781c0.219,-0.438 0.438,-1.125 0.438,-1.563c0.906,-5.187 2.937,-9.906 4.719,-14.625c2.031,-6.062 5.187,-11.937 7.656,-17.781c0.438,-0.906 0.906,-1.562 1.563,-2.25c0.906,-1.125 1.812,-2.031 1.812,-3.594c0,-0.687 0.687,-1.343 1.125,-2.031c2.031,-2.687 3.812,-5.187 5.625,-7.875l0.437,-0.687c2.938,-2.688 5.625,-5.625 9.438,-7.188c3.156,-1.344 6.312,-0.687 9.437,0.438c2.032,0.906 3.594,2.25 5.407,3.593c3.812,3.157 7.437,6.532 11.25,9.438c2.468,2.031 3.812,4.281 3.812,7.437l0,0.688c1.563,3.594 0.219,6.969 0,10.344c-1.344,2.937 -1.562,6.312 -3.375,9c-1.562,2.25 -2.687,4.937 -3.812,7.656c-0.907,1.562 -1.563,3.156 -2.688,4.5c-0.687,0.906 -1.562,2.031 -2.031,2.937c-0.438,1.563 -1.813,2.688 -2.688,3.813c-1.812,2.25 -3.375,4.5 -5.406,6.75c-1.562,1.562 -2.937,3.594 -4.937,4.719c-0.688,0.218 -1.125,0.687 -1.344,1.343c-1.344,1.813 -3.156,2.938 -4.938,4.282c-0.687,0.437 -1.343,0.437 -2.25,0.218c-3.812,-1.562 -7.437,-3.593 -11.031,-5.625c-0.687,-0.218 -1.125,-0.687 -1.812,-0.906c-0.219,0 -0.907,0 -0.907,0.438c-0.437,1.125 -0.906,2.468 -1.125,3.593c-0.437,1.344 -0.437,2.938 -1.125,4.282c-0.687,2.25 -1.125,4.718 -1.125,7.187c-0.218,2.25 -0.687,4.719 -1.343,7.188c-0.438,2.687 -1.125,5.187 -0.907,7.875l0,4.062c0,2.469 -0.218,4.938 0,7.438c0.438,4.062 1.125,4.5 5.188,3.375c2.031,-0.438 3.594,-1.344 5.406,-2.25l3.375,-2.032c0.906,-0.437 1.563,-1.125 2.469,-1.812c2.031,-2.25 4.281,-4.281 6.75,-6.313c2.469,-2.25 4.937,-4.718 7.187,-7.187c2.032,-2.031 3.375,-4.281 5.188,-6.531c2.031,-2.25 4.062,-4.282 6.062,-6.75c1.813,-2.25 2.688,-4.5 4.938,-6.75c1.125,-1.125 2.031,-2.469 2.937,-4.063c2.688,-3.812 4.938,-6.75 7.657,-10.344c2.031,-2.687 4.281,-6.312 6.312,-9.218c0.906,-1.125 1.344,-1.125 2.469,-0.219c0.687,0.219 1.125,0.687 1.562,1.125c1.125,1.125 2.469,1.812 3.813,2.687c1.812,1.125 2.25,1.563 4.281,2.938c1.344,0.687 1.813,1.344 2.938,2.25c0.687,0.437 0.687,0.687 -0,1.562c-1.125,1.344 -1.344,3.157 -2.469,4.282c-0.688,0.437 -1.125,1.812 -1.563,2.031c-0.906,0.906 -0.906,2.031 -1.562,3.375c-0.438,1.125 -1.125,2.25 -2.031,3.156l-0.688,0.906c-1.812,3.813 -4.062,6.969 -6.969,9.907c-1.125,2.468 -1.812,4.281 -3.812,6.062c-2.688,2.938 -4.281,6.063 -6.969,8.781c-0.906,0.907 -1.562,1.563 -2.469,2.25c-0.906,0.438 -1.812,0.438 -2.468,1.125c-0.438,0.438 -0.438,1.563 -1.125,2.032c-1.125,0.687 -1.813,1.562 -1.813,3.156c0,0.437 -0.437,0.906 -0.906,1.125c-4.5,4.5 -8.781,8.781 -13.719,12.594c-2.687,2.25 -6.062,3.593 -9.437,4.5c-1.813,0.687 -3.813,0.437 -5.625,0.218c-2.469,-0.687 -5.188,-1.125 -7.438,-2.25Zm3.157,-64.812c0.218,-0 0.218,-0.219 0.218,-0.219c4.063,-3.813 9,-6.531 11.688,-11.25l1.344,-2.031c2.25,-2.938 4.062,-6.313 5.625,-9.688c1.125,-2.25 2.25,-4.281 3.593,-6.531c2.938,-4.719 3.813,-10.813 4.282,-16.437c-0,-0 -0.438,-0.907 -0.688,-0.907c-0.219,-0.218 -0.437,0 -0.687,0l-0.438,0c-4.062,2.688 -7.437,5.844 -9.906,9.906c-3.594,6.063 -7.438,12.157 -10.344,18.907c-0.687,2.031 -1.812,3.812 -2.469,5.625c-0.906,2.031 -1.344,4.281 -2.25,6.75c-0.218,1.343 -0.906,2.937 -1.562,4.718c-0.219,0.219 -0.688,1.563 -0.438,1.813c0.438,0.438 1.563,-0.438 2.032,-0.688l-0,0.032Z" style="fill:#231f20;fill-rule:nonzero;"/><path d="M35.906,20.406l-12.843,0l-0,-5.062l31.062,-0l0,5.062l-12.813,0l0.001,34.75l-5.407,0l0,-34.75Z" style="fill:#fff;fill-rule:nonzero;"/><path d="M64.219,15.344l25.718,-0l0,5.062l-20.312,0l-0,11.875l18.906,0l0,5.063l-18.906,-0l-0,12.781l21.312,0l0,5.063l-26.718,-0l-0,-39.844Z" style="fill:#fff;fill-rule:nonzero;"/><path d="M117.031,15.344l4.938,-0l17.031,39.812l-6.313,0l-4,-9.843l-18.968,-0l-3.938,9.843l-6.312,0l17.562,-39.812Zm9.719,25.25l-7.438,-18.282l-0.124,0l-7.532,18.282l15.094,-0Z" style="fill:#fff;fill-rule:nonzero;"/><path d="M148.562,15.344l8.094,-0l12.656,30.156l0.219,0l12.531,-30.156l8.032,-0l-0,39.812l-5.407,0l0,-32.75l-0.125,0l-13.437,32.75l-3.594,0l-13.437,-32.75l-0.125,0l-0,32.75l-5.407,0l0,-39.812Z" style="fill:#fff;fill-rule:nonzero;"/><path d="M257,400.188c-5.5,-4.5 -10.5,-9 -15.5,-14c-3.5,-3.5 -6.5,-7.5 -8,-12c-0.5,-2 -0.5,-4 0.5,-6c1,-2.5 2.5,-5 4.5,-7c6.5,-5 10.5,-12 14.5,-19c9.5,-13.5 18.5,-28 29,-40.5l3,-4.5l29,-39c3,-4.5 5.5,-9 9,-12.5l2.5,-3c4.5,-9 11.5,-18 17,-27c8.5,-12 17,-25 25.5,-37.5c4,-5.5 7,-11.5 11.5,-17c5.5,-9.5 11,-19 15.5,-28.5c5.5,-10 11.5,-27.5 13.5,-38.5c0.5,-2.5 0.5,-5.5 0.5,-8.5c3.5,-9 3.5,-18.5 0.5,-28.5c-0,-3.5 -1,-7 -1,-11c0,-0.5 -0.5,-1.5 -1.5,-1.5c-2.5,-1 -5,-2.5 -8,-2.5c-7.5,-0 -15,-0 -22.5,-0.5c-2,-0 -3.5,0.5 -5,1c-5.5,2.5 -10.5,3.5 -16,6.5c-2.5,1.5 -5,3 -8,3.5c-4,1 -7.5,3 -11,6.5l-1,1c-6.5,2.5 -11.5,7.5 -17,11.5c-4.5,3.5 -8,7 -11.5,11.5c-4.5,5 -7.5,10.5 -10.5,16c-3.5,6.5 -4,14 -1,21.5c0.5,1 2,2 0.5,3c-1,-0 -1.5,-2 -2.5,-2.5c-5,-6 -9,-12 -14,-18.5c-5,-8 -8.5,-17 -8,-26.5c-0.5,-12.5 4,-23 14,-31c1.5,-1.5 3.5,-3 4.5,-5c5.5,-6.5 12.5,-12 19.5,-17c3,-2.5 6,-4.5 10,-6c2.5,-0.5 4.5,-2 7,-3.5l12,-6.5c3.5,-2 7.5,-2 11,-3.5c4,-2 8,-2 12,-3c6.5,-1 13.5,-0.5 20,1.5l12.5,3.5c1,0.5 2,1.5 3,2.5c4.5,4 8,8 11,13.5c6,12 12,23.5 17.5,35.5c3.5,8.5 8.5,16 8.5,25c0,5 1,9.5 1.5,14.5c-0.5,4.5 -0.5,9 -0.5,13.5c-0.5,5.5 -2.5,11.5 -3,17c-1,5 -1.5,10 -2.5,15c-2,5.5 -3.5,10.5 -6,15c-3,6 -6.5,12 -8,19c-2,4.5 -4.5,8.5 -8,10.5c-2.5,2 -3.5,4 -3,7c-0.5,1.5 -1.5,3.5 -3,5.5c-4,7.5 -9,15.5 -14.5,22c-1,1.5 -1.5,3 -2,4.5c-3,7 -8,13 -12.5,18.5l-4.5,7.5l-1,1.5c-5,5 -7.5,12 -11.5,17.5c-1,2 -1.5,4.5 -3.5,5.5c-1.5,1 -2,2 -2.5,3c-2.5,6.5 -6.5,12 -11,17c-1.5,2.5 -3.5,4.5 -4.5,7.5l-3,4c-5,7 -10,13.5 -15,20l-1,1.5c0,1 0.5,2.5 2,2.5c5.5,0.5 21,3.5 27,4.5c9.5,1.5 19,3.5 28,6.5c6,2.5 12,4 17.5,6.5c7.5,3.5 14,7.5 17.5,15l3,3l2,3c2.5,3 3.5,6 5,9.5c1.5,3.5 5,4.5 6.5,8.5l0,1c-0.5,-0 -1,0.5 -1.5,-0l-0.5,-0c-6,-4 -13,-5 -19.5,-7.5c-9.5,-3 -19,-5.5 -28.5,-7c-6.5,-2 -13,-2.5 -19.5,-3c-5.5,-0 -11,-0 -26.5,-2c-13,-0.5 -25,3 -36.5,9c-6.5,4 -13,8.5 -18.5,14c-2.5,3 -4,6 -6.5,9c-2,3 -3.5,3 -6.5,1c-1,-0.5 -2,-2 -2.5,-2.5Z" style="fill:#aa1e30;fill-rule:nonzero;"/><path d="M429.312,391.813c-3.156,-0.907 -6.312,-2.25 -9.437,-3.594c-1.125,-0.438 -2.25,-1.563 -3.375,-2.688c-0.906,-0.906 -1.344,-2.031 -0.688,-3.375l0.907,-4.281l2.468,-7.188l1.563,-7.656c0.906,-3.156 1.562,-6.312 2.25,-9.437c0.437,-1.344 1.344,-2.25 1.562,-3.813c0.438,-1.125 0.219,-2.469 0.688,-3.812c1.812,-6.75 4.062,-13.5 5.844,-20.032c2.031,-7.656 3.812,-15.312 5.843,-22.718l3.375,-12.813c1.125,-4.281 2.25,-8.562 3.594,-13.062c0.906,-3.157 1.813,-6.532 2.469,-9.438l-0,-0.437c2.031,-5.844 3.156,-12.157 4.719,-18l9,-31.282c0.437,-0.906 0.687,-2.031 0.906,-2.937c0.437,-1.344 2.031,-1.563 2.937,-0.438c1.563,2.032 3.813,3.375 5.407,5.407c2.25,2.031 3.812,4.5 5.843,6.75c0.907,0.687 0.907,1.562 0.438,2.468c-0.688,2.25 -1.125,4.5 -2.031,6.75c-1.125,3.375 -2.469,6.969 -3.375,10.563l-0.688,2.469c-0.437,2.687 -1.812,4.718 -2.937,6.75c-0.219,0.437 -0.688,0.687 -1.125,1.125c-0.219,0.218 -0.219,0.437 -0,0.687c0.437,0.438 0.687,1.125 1.125,1.563c-0.907,1.344 -0.219,2.687 -0.907,4.062c-0.906,2.25 -1.125,4.5 -1.812,6.75c-0.906,4.063 -2.031,8.094 -3.375,11.938c-0.438,1.343 -0.438,2.937 -0.906,4.5c-0.907,4.062 -2.25,8.312 -3.157,12.375c-0.437,2.25 -0.687,4.281 -1.562,6.312c-0.438,1.125 -1.125,5.625 -1.344,6.969l0.219,0.219c0.219,-0 0.437,-0 0.687,-0.219c2.938,-3.813 7.188,-10.563 9.907,-14.844c0.687,-1.125 1.812,-2.469 3.156,-2.687c0.687,-0.438 1.125,-1.125 1.344,-1.813c0.218,-1.344 1.125,-2.469 2.031,-3.375l0.687,-0.687c2.938,-4.719 7.657,-8.094 11.938,-11.688c0.687,-0.437 1.344,-0.906 1.812,-1.562c1.563,-2.688 4.063,-4.282 6.313,-6.313c1.562,-1.812 3.594,-2.687 5.844,-3.812c1.812,-0.688 2.937,-0.219 4.062,0.906c2.938,2.938 6.063,5.188 9.219,8.313c0.906,0.906 1.812,1.562 2.469,2.468c1.343,0.906 2.031,2.031 2.687,3.375c0.219,0.219 0.438,0.906 0.219,1.344c0.437,3.813 -0.438,7.438 -1.813,11.031l-2.031,5.406c-0.437,2.469 -1.562,4.938 -2.687,7.188c-1.563,2.469 -2.25,4.938 -3.594,7.188c-1.125,3.375 -1.813,7.187 -3.813,9.906c-0.687,0.906 -0.906,2.031 -1.343,2.937c-0.907,1.813 -1.813,3.594 -2.25,5.625c-0,0.438 -0,0.688 -0.219,1.125c-0.688,2.031 -2.031,3.594 -2.688,5.844c-0.218,2.25 -1.125,4.281 -2.25,6.313c-0.687,1.812 -1.343,3.812 -1.562,5.843c-0.688,3.813 -2.031,7.438 -2.469,11.25c0,1.344 -0.687,2.469 -1.125,3.813c-0.687,2.25 -1.125,4.5 -1.562,6.75c-0,0.906 -0,1.812 0.218,2.687c0.688,-0.437 1.344,-0.906 2.032,-1.562c1.812,-2.031 3.375,-4.063 5.406,-6.531c4.062,-4.938 7.656,-10.125 11.25,-15.532c0.906,-1.125 1.562,-2.25 2.687,-3.594c0.688,-1.343 1.344,-2.687 2.25,-4.062c0.438,-0.688 5.407,-8.563 6.063,-9c1.812,-1.813 3.594,-5.625 4.937,-7.437c0.219,-0.438 0.688,-0.907 1.125,-1.344c0.438,-0.219 0.907,-0.438 1.344,-0c2.25,1.125 4.281,2.469 6.313,3.812c0.437,0.219 0.687,0.688 0.906,1.125c0.687,1.813 1.344,2.469 2.937,2.469c1.344,0.219 2.25,0.438 3.157,1.125c1.812,1.125 2.031,2.031 1.125,3.813c-0.438,0.906 -1.125,1.562 -1.813,2.25c-2.937,4.5 -9,14.843 -11.25,17.781c0,0.219 -0.219,0.219 -0.219,0.437c-0.687,2.25 -2.468,4.063 -3.593,5.844l-4.063,5.406c-1.125,1.563 -2.25,2.938 -3.375,4.719c-1.125,1.812 -2.25,3.375 -3.812,4.719c-0.688,0.437 -1.344,1.125 -2.032,1.125c-1.562,-0 -1.125,1.125 -1.562,2.468c-0.438,1.344 -1.563,2.032 -2.469,2.688c-0.219,0.437 -0.687,0.687 -1.125,0.687c-1.562,0 -2.687,0.438 -3.156,2.032c-0.219,0.218 -0.438,0.218 -0.438,0.437c-2.937,3.375 -6.062,4.063 -10.343,2.688l-12.594,-4.719c-4.719,-2.031 -6.969,-5.844 -8.313,-10.125c-0.218,-0.906 -0.218,-1.813 -0.218,-2.688c-0,-2.687 0.437,-5.187 0.437,-7.875c0,-2.468 0.688,-4.937 1.344,-7.187l3.375,-12.594c0.219,-1.812 1.125,-3.156 1.562,-4.937c0.907,-3.594 2.469,-6.75 3.157,-10.563c-0,-0.437 -0,-0.687 0.218,-1.125l6.75,-16.875c0.688,-1.562 1.563,-3.156 1.813,-4.719c0.687,-1.343 1.562,-2.937 2.25,-4.5l1.812,-4.281c0,-0.219 0,-0.437 -0.218,-0.906c-0.688,-0.219 -0.438,0.687 -0.907,0.687c-0.218,0.219 -0.687,0.438 -0.906,0.907c-0.437,0.687 -0.906,1.343 -1.812,1.562c-0.907,0.219 -1.125,0.688 -1.125,1.125c-0.219,1.813 -1.563,2.688 -2.469,4.063c-0.688,0.906 -1.563,1.562 -2.25,2.031c-1.125,1.812 -2.469,3.375 -3.375,5.406c-0.906,2.031 -2.938,3.375 -4.281,5.188c-1.125,1.125 -2.032,2.25 -2.688,3.375c-0.437,0.687 -0.906,1.343 -1.562,1.812c-1.125,0.906 -2.032,2.031 -2.25,3.594c-0.219,1.562 -1.125,2.937 -2.25,3.594c-1.344,0.906 -2.032,2.031 -2.688,2.937c-0.437,0.438 -0.687,0.906 -0.687,1.344c-1.125,4.719 -4.719,8.312 -6.75,12.594c-0.219,0.437 -0.688,0.687 -0.907,1.125l-4.5,8.093l-4.281,8.313c-2.031,3.812 -3.594,7.875 -5.625,11.469c-0.906,1.343 -1.562,3.156 -1.812,4.718c-0.688,1.813 -1.344,3.594 -1.813,5.407c-0.687,1.125 -0.906,2.468 -1.344,3.593c-0.218,1.125 -1.125,1.563 -2.25,1.344l-2.687,-0.687l-0.063,-0.031Z" style="fill:#231f20;fill-rule:nonzero;"/><path d="M540.906,389.813c-4.281,-2.032 -8.781,-4.063 -12.812,-6.313c-3.157,-1.563 -5.844,-4.063 -7.657,-7.188c-0.906,-1.562 -2.031,-3.156 -2.687,-4.937c-0.906,-2.688 -1.344,-5.406 -1.344,-8.094c0,-2.031 -0.218,-4.062 0.219,-6.062c0.437,-3.375 0.219,-6.532 1.125,-9.688c0.219,-1.562 0.219,-3.375 0.688,-4.937c0.437,-1.813 0.906,-3.594 1.562,-5.188c0.219,-0.906 0.438,-1.812 0.438,-2.687c-0.219,-1.563 0.218,-3.375 0.437,-4.938c0.687,-2.937 1.344,-6.062 2.688,-8.781c0.218,-0.438 0.437,-1.125 0.437,-1.563c0.906,-5.187 2.937,-9.906 4.719,-14.625c2.031,-6.062 5.187,-11.937 7.656,-17.781c0.437,-0.906 0.906,-1.562 1.562,-2.25c0.907,-1.125 1.813,-2.031 1.813,-3.594c-0,-0.687 0.687,-1.343 1.125,-2.031c2.031,-2.687 3.812,-5.187 5.625,-7.875l0.437,-0.687c2.938,-2.688 5.625,-5.625 9.438,-7.188c3.156,-1.344 6.313,-0.687 9.438,0.438c2.031,0.906 3.593,2.25 5.406,3.593c3.812,3.157 7.437,6.532 11.25,9.438c2.468,2.031 3.812,4.281 3.812,7.437l0,0.688c1.563,3.594 0.219,6.969 0,10.344c-1.344,2.937 -1.562,6.312 -3.375,9c-1.562,2.25 -2.687,4.937 -3.812,7.656c-0.907,1.562 -1.563,3.156 -2.688,4.5c-0.687,0.906 -1.562,2.031 -2.031,2.937c-0.438,1.563 -1.813,2.688 -2.688,3.813c-1.812,2.25 -3.375,4.5 -5.406,6.75c-1.562,1.562 -2.937,3.594 -4.937,4.719c-0.688,0.218 -1.125,0.687 -1.344,1.343c-1.344,1.813 -3.156,2.938 -4.938,4.282c-0.687,0.437 -1.343,0.437 -2.25,0.218c-3.812,-1.562 -7.437,-3.593 -11.031,-5.625c-0.687,-0.218 -1.125,-0.687 -1.812,-0.906c-0.219,0 -0.907,0 -0.907,0.438c-0.437,1.125 -0.906,2.468 -1.125,3.593c-0.437,1.344 -0.437,2.938 -1.125,4.282c-0.687,2.25 -1.125,4.718 -1.125,7.187c-0.218,2.25 -0.687,4.719 -1.343,7.188c-0.438,2.687 -1.125,5.187 -0.907,7.875l0,4.062c0,2.469 -0.218,4.938 0,7.438c0.438,4.062 1.125,4.5 5.188,3.375c2.031,-0.438 3.594,-1.344 5.406,-2.25l3.375,-2.031c0.906,-0.438 1.563,-1.125 2.469,-1.813c2.031,-2.25 4.281,-4.281 6.75,-6.313c2.469,-2.25 4.937,-4.718 7.187,-7.187c2.032,-2.031 3.375,-4.281 5.188,-6.531c2.031,-2.25 4.062,-4.282 6.062,-6.75c1.813,-2.25 2.688,-4.5 4.938,-6.75c1.125,-1.125 2.031,-2.469 2.937,-4.063c2.688,-3.812 4.938,-6.75 7.657,-10.344c2.031,-2.687 4.281,-6.312 6.312,-9.218c0.906,-1.125 1.344,-1.125 2.469,-0.219c0.687,0.219 1.125,0.687 1.562,1.125c1.125,1.125 2.469,1.812 3.813,2.687c1.812,1.125 2.25,1.563 4.281,2.938c1.344,0.687 1.813,1.344 2.938,2.25c0.687,0.437 0.687,0.687 -0,1.562c-1.125,1.344 -1.344,3.157 -2.469,4.282c-0.688,0.437 -1.125,1.812 -1.563,2.031c-0.906,0.906 -0.906,2.031 -1.562,3.375c-0.438,1.125 -1.125,2.25 -2.031,3.156l-0.688,0.906c-1.812,3.813 -4.062,6.969 -6.969,9.907c-1.125,2.469 -1.812,4.281 -3.812,6.062c-2.688,2.938 -4.281,6.063 -6.969,8.781c-0.906,0.907 -1.562,1.563 -2.469,2.25c-0.906,0.438 -1.812,0.438 -2.468,1.126c-0.438,0.437 -0.438,1.562 -1.125,2.031c-1.125,0.687 -1.813,1.562 -1.813,3.156c0,0.438 -0.437,0.906 -0.906,1.125c-4.5,4.5 -8.781,8.781 -13.719,12.594c-2.687,2.25 -6.062,3.594 -9.437,4.5c-1.813,0.687 -3.813,0.437 -5.625,0.219c-2.469,-0.688 -5.188,-1.125 -7.438,-2.25Zm3.157,-64.813c0.218,0 0.218,-0.219 0.218,-0.219c4.063,-3.812 9,-6.531 11.688,-11.25l1.344,-2.031c2.25,-2.938 4.062,-6.313 5.625,-9.688c1.125,-2.249 2.25,-4.281 3.593,-6.531c2.938,-4.719 3.813,-10.812 4.282,-16.437c-0,-0 -0.438,-0.906 -0.688,-0.906c-0.219,-0.219 -0.437,-0 -0.687,-0l-0.438,-0c-4.062,2.687 -7.437,5.843 -9.906,9.906c-3.594,6.062 -7.438,12.156 -10.344,18.906c-0.687,2.031 -1.812,3.813 -2.469,5.625c-0.906,2.031 -1.343,4.281 -2.25,6.75c-0.218,1.344 -0.906,2.937 -1.562,4.719c-0.219,0.218 -0.688,1.562 -0.438,1.812c0.438,0.438 1.563,-0.437 2.032,-0.687l-0,0.031Z" style="fill:#231f20;fill-rule:nonzero;"/><path d="M607.719,396.562c-4.063,-1.125 -6.75,-2.25 -10.813,-3.593c-2.937,-1.125 -5.187,-3.156 -7.187,-5.625c-2.25,-2.688 -3.594,-5.844 -3.375,-9.438c-0,-2.25 -0.438,-4.281 -0.688,-6.312c-0.219,-2.032 0.688,-3.813 0.688,-5.625c-0,-5.625 1.125,-11.032 2.468,-16.438c0.688,-4.062 1.563,-7.875 2.25,-11.937c0.688,-3.157 1.563,-6.313 2.25,-9.688c0.688,-3.156 1.813,-6.312 2.469,-9.437c0.688,-4.063 2.031,-7.875 2.688,-11.938c0.906,-4.719 2.25,-9.437 3.375,-14.406c1.562,-6.75 3.156,-13.5 5.187,-20.031c2.469,-8.094 11.031,-45.688 13.281,-53.563c0.438,-1.562 0.438,-3.156 1.125,-4.5c0.438,-0.906 -0.218,-1.812 -0.437,-2.687c-0.438,-1.344 0.437,-2.938 1.813,-3.375l0.687,-0c0.688,0.437 1.125,0.687 1.563,1.125c3.156,2.687 6.531,4.718 9,8.093c0.687,0.907 1.812,1.563 2.937,2.469c0.688,0.688 0.906,1.563 0.906,2.469c-0.218,0.906 2.032,3.375 1.813,4.281c-0.906,3.594 -0.438,7.438 -1.344,11.25c-1.125,4.5 -2.031,9.219 -4.062,20.25c-1.344,3.813 -3.157,7.875 -4.063,11.938c0,0.219 -0.219,0.437 -0.437,0.687c-0.438,1.125 -1.344,2.469 -1.344,3.594c-0,1.125 -0.438,2.25 -0.688,3.375c-0.687,2.688 -1.125,5.625 -2.468,8.094c-0.688,0.906 -0,1.562 -0.219,2.469c-1.344,4.937 -4.063,8.312 -5.188,13.062c0,0.438 -0.437,0.906 -0.437,1.125c0.219,3.156 -2.469,5.844 -2.688,8.781c0,0.438 -0.218,0.907 -0.218,1.563c-0.688,1.125 -0.688,2.25 -0.907,3.594c-0.437,1.812 -0.437,3.593 -1.562,5.187c-0.438,0.438 -0.438,1.125 -0.438,1.813c0.219,3.156 -0.687,6.062 -1.562,9c-0.438,2.468 -0.906,4.937 -1.813,7.187c-0.437,1.344 0.219,2.469 -0.437,3.813c-0.438,0.906 -0.688,2.25 -0.906,3.375l-0.688,3.593c-0.219,0.688 -0.219,1.344 -0.437,2.032c-1.125,3.156 -1.125,6.531 -2.032,9.687c-0.687,2.469 -0.437,4.938 -0.906,7.438c-0.437,3.156 -0.219,6.312 -0.437,9.437l-0,3.156c-0,0.688 -0.438,1.813 0.687,2.032c0.688,-0 0.906,-0.907 1.344,-1.344c3.594,-3.594 5.844,-7.656 8.312,-12.156c1.125,-2.25 2.469,-4.719 4.282,-6.75c0.906,-1.125 1.343,-2.25 1.562,-3.594c0,-1.813 1.813,-3.156 2.469,-4.5c0.906,-1.813 1.125,-3.375 2.031,-5.188l0.688,-0.906c1.812,-1.125 3.812,-5.625 4.5,-7.437c0.906,-2.032 1.562,-4.063 2.468,-6.063l2.032,-4.719c0.437,-1.562 1.125,-3.156 1.812,-4.5c0.688,-1.343 1.125,-2.468 1.813,-3.593c0.906,-1.563 1.562,-1.813 3.156,-0.907c3.594,1.563 5.625,3.157 9.219,4.938c1.343,0.687 2.468,1.344 3.593,2.031c1.125,0.688 1.125,1.125 0.688,2.469c-0.219,0.437 -0.438,1.125 -0.906,1.562c-1.344,2.469 -2.688,4.938 -3.375,7.875c-0.438,1.563 -1.125,3.375 -2.688,4.5c-0.906,0.907 -0.906,2.032 -0.906,2.938c-1.563,2.687 -2.688,7.187 -4.063,9.219c-0.906,1.343 -1.812,2.687 -2.468,4.5c-0.219,1.125 -0.907,2.25 -1.563,3.375l-6.969,13.718l-1.562,2.032c-0.438,0.687 -1.344,1.562 -1.563,2.468c-0.218,1.813 -1.343,2.688 -2.25,4.063l-4.062,5.187c-2.469,2.688 -5.406,4.5 -9.219,4.282l-1.344,-0c-1.125,-0 -2.687,-0.219 -4.281,-0.907l-0.156,0.031Z" style="fill:#231f20;fill-rule:nonzero;"/><path d="M614.469,426.937c-0.438,-0.218 -1.125,-0.437 -1.563,-0.906c-2.937,-2.469 -4.281,-3.812 -2.687,-7.656c1.125,-2.688 1.812,-5.406 2.687,-8.313c1.344,-4.499 2.688,-9.218 3.594,-13.718c1.125,-6.75 4.937,-20.031 6.969,-26.563c1.812,-5.625 3.375,-10.812 5.625,-16.187c1.343,-3.375 2.25,-7.188 3.593,-11.031c0.438,-1.125 0.688,-2.25 1.125,-3.157c1.125,-2.031 1.563,-4.062 1.813,-6.312c0.219,-2.031 0.906,-4.063 1.344,-6.063c1.343,-4.062 2.031,-8.562 3.375,-12.812c1.562,-4.938 2.468,-9.438 3.812,-14.188c0.688,-2.469 0.906,-4.937 1.563,-7.437c1.343,-4.5 1.812,-9 3.593,-13.719c0.688,-1.812 1.126,-3.812 1.344,-5.625c0.219,-2.469 1.125,-4.5 2.032,-6.969c-0,-0.437 0.218,-1.125 0.437,-1.343c0.906,-0.907 1.125,-1.813 1.125,-2.938c0,-1.812 0.906,-3.594 1.344,-5.187c0.437,-0.907 1.812,-1.125 2.687,-0.438c1.125,0.906 1.813,2.469 2.688,3.156c0.687,0.438 1.125,0.688 1.812,0.688c1.344,-0 2.469,0.437 3.375,1.125c2.25,1.562 4.282,2.937 6.532,4.719c0.437,0.218 0.906,0.687 0.687,1.343c-0.688,2.25 -1.344,4.719 -2.937,6.532l-0.688,1.562c0.219,2.688 -0.687,5.406 -1.813,7.875c-0.218,1.344 -0.687,2.688 -1.125,4.063c-0.218,0.906 -0.218,2.031 0.219,3.156c0.688,-0 1.125,-0.688 1.563,-1.125l9.437,-12.813c0.438,-0.437 0.688,-0.906 1.125,-0.906c2.938,-1.812 5.188,-3.812 7.875,-5.844c2.032,-1.562 4.719,-2.031 7.438,-0.687c5.187,3.375 10.562,6.531 15.531,10.125c1.813,1.344 3.375,2.937 4.063,5.187c0.687,1.563 0.437,2.938 0.687,4.5c0.219,1.344 0,2.938 0.438,4.5c0.218,0.907 1.562,1.813 1.343,2.688c-0.906,2.031 -0.687,4.062 -1.562,6.062c-0.219,0.438 -0.219,0.907 -0.219,1.563c0,1.812 -0.437,3.156 -2.25,4.062c-0.219,0.219 -0.437,0.688 -0.219,0.907c1.344,1.343 2.032,3.156 1.563,4.5c-0.906,3.593 -3.594,11.687 -4.5,15.312c-1.344,5.406 -3.594,10.813 -5.625,15.969c-0.438,2.031 -1.344,4.062 -2.469,5.625c-1.125,1.344 -1.125,3.156 -1.562,4.719c-0.438,1.125 -0.688,2.468 -1.344,3.593l-1.344,2.938c-0.437,1.812 -1.562,3.594 -2.687,5.406c-1.344,1.563 -2.032,3.156 -2.938,4.938c-1.344,3.156 -3.156,5.843 -6.312,7.656c-0.907,0.219 -1.344,1.125 -1.813,1.812c-0.687,1.344 -2.031,1.813 -3.156,2.469c-2.031,1.125 -6.313,2.25 -8.781,2.469c-3.375,0.219 -6.063,0.437 -8.782,-0.688c-4.062,-1.562 -7.875,-2.937 -11.468,-4.718c-1.344,-0.219 -2.469,-0.907 -3.594,-1.813c-0.906,-0.219 -1.125,-1.562 -2.031,-1.125c-1.344,0 -1.563,1.344 -2.032,2.469l-3.812,12.156c-0.219,1.562 -1.125,3.156 -1.563,4.719c-1.812,6.531 -3.812,12.812 -5.625,19.343c-1.125,4.063 -2.25,8.094 -3.812,12.157c-0.438,0.906 -0.906,1.812 -1.125,2.468c-0.438,0.688 -0.906,0.907 -1.813,0.438c-3.812,-1.344 -7.656,-2.938 -11.25,-4.719l0.063,0.031Zm43.875,-53.343c2.468,-0.906 6.968,-2.469 9,-4.719c4.062,-3.813 7.656,-7.656 9.437,-13.063l0,-0.437c2.031,-2.937 3.375,-6.313 4.719,-9.438c0.687,-2.468 1.812,-4.937 2.937,-7.437c3.594,-7.875 7.188,-20.688 9.907,-28.344c0.906,-2.469 0.437,-4.281 0.906,-6.75c0.437,-2.687 1.344,-5.406 2.031,-8.312c0.438,-2.25 -0.687,-4.5 -0.437,-6.75c0.218,-0.219 0.218,-0.688 0.218,-0.688c-0.218,-0.218 -0.687,-0.218 -0.687,0c-2.031,1.125 -3.375,2.938 -5.188,4.063c-0.687,-0 -1.125,0.437 -1.343,1.125c-0.438,1.125 -1.344,2.031 -2.469,2.937c-1.563,1.125 -2.688,2.688 -3.594,4.5l-0.687,1.344l-7.188,9c-2.031,2.688 -6.062,9.688 -7.437,12.594c-1.125,2.25 -2.25,4.5 -3.813,6.312c-1.125,1.344 -2.031,2.938 -2.937,4.5c-0.219,0.438 -0.438,0.907 -0.438,1.344c0,1.344 -0.906,2.469 -1.344,3.594c-1.343,3.594 -3.156,6.969 -4.5,10.812c-0.437,1.125 -0.906,2.25 -2.031,2.938c-0.687,0.219 -0.906,1.125 -1.125,2.031l-0.687,3.156l-0.438,1.344c0,1.344 0.219,2.031 1.125,2.469c0.907,0.437 1.344,1.125 2.032,1.344c1.125,0.687 1.343,1.343 1.343,2.25l-0.218,2.031c-0.219,2.031 0.437,3.812 0.687,5.625c0.219,0.906 0.906,1.344 1.813,0.906c0.145,0 0.291,-0.073 0.437,-0.219l-0.031,-0.062Z" style="fill:#231f20;fill-rule:nonzero;"/><path d="M0,0l262.5,0c0,37.938 -30.813,68.75 -68.75,68.75l-193.75,0l0,-68.75Z" style="fill:#aa1e30;fill-rule:nonzero;"/><path d="M6.844,228.625c-1.125,-0.438 -2.25,-0.906 -2.938,-1.344c-2.031,-1.344 -3.593,-3.375 -3.156,-5.844l1.125,-6.531c0.687,-4.062 1.562,-11.469 3.156,-15.312c0.219,-3.813 1.563,-7.438 2.469,-11.032l4.937,-16.656c0.907,-3.156 1.813,-6.531 3.375,-9.687l0.688,-2.469c0.687,-2.687 1.344,-5.406 2.25,-8.094c0.437,-1.812 1.344,-3.375 2.031,-5.187c0.688,-0.907 1.344,-2.032 1.344,-3.156c-0.219,-2.469 0.687,-4.719 1.812,-6.969c0.688,-1.125 0.907,-2.469 1.344,-3.594c0.219,-2.031 1.125,-3.812 1.813,-5.844c2.031,-6.75 3.375,-13.281 4.718,-20.031c0.219,-0.906 0.438,-1.812 1.125,-2.469c0.688,-0.687 1.125,-0.906 2.032,-0.687c0.906,0.687 2.031,0.906 2.687,1.812c0.906,0.907 1.813,1.563 2.938,2.032c1.125,0.687 2.25,1.125 2.937,2.25c1.125,1.343 1.563,1.343 2.688,2.468c0.687,0.907 1.125,1.563 1.125,2.938c-0,0.687 -0.907,5.844 -0.219,6.969c1.562,-1.563 4.937,-6.532 6.062,-8.313c1.125,-1.344 2.25,-2.25 3.594,-3.375c0.906,-1.344 2.25,-2.031 2.688,-3.594c3.593,-3.593 7.187,-6.968 12.156,-8.312c2.937,-0.688 5.625,-0 8.312,0.437c0.438,0 0.907,0.438 1.344,0.907l4.938,3.812c0.906,0.688 1.812,1.344 2.687,2.25c0.438,0.219 0.906,0.688 0.906,1.125c0.219,1.344 2.032,1.125 2.469,2.469l0.688,2.031c-2.938,0 -5.625,-0.437 -7.657,0.438c-2.468,0.906 -4.5,2.468 -6.531,4.499c-1.344,1.344 -3.156,2.688 -4.937,4.063c-1.563,1.344 -2.688,3.375 -3.813,4.719c-1.344,1.562 -2.25,3.156 -3.594,4.718c-0.906,0.907 -1.812,2.032 -3.375,2.25c-1.125,0 -1.125,0.219 -1.125,1.563c0.219,1.125 -0.437,1.813 -0.906,2.469c-0.906,1.344 -2.25,2.25 -2.687,3.375l-2.25,2.937c-1.563,2.25 -2.938,4.719 -4.719,6.969c-2.469,3.813 -4.281,7.656 -6.75,11.25c-2.031,3.813 -3.375,7.875 -5.844,11.031c-0.687,0.688 -0.906,1.344 -1.125,2.25c-0.437,2.031 -0.687,4.281 -2.25,6.313c-0.687,2.469 -2.031,4.719 -2.687,7.437c-0.438,1.563 -1.125,2.938 -1.813,4.281c-0.687,0.907 -1.125,2.25 -1.562,3.375c-2.032,6.532 -3.813,16.188 -6.063,22.282c-1.125,3.375 -2.031,7.187 -2.687,10.562c-1.563,5.188 -2.032,3.813 -5.844,2.688c-2.688,-0.688 -5.188,-1.813 -7.875,-2.469l-0.031,0Z" style="fill:#231f20;fill-rule:nonzero;"/><path d="M75.031,227.281c-4.5,-2.937 -7.656,-6.969 -9.437,-11.937c-1.125,-2.688 -2.032,-5.406 -1.813,-8.313c0,-0.218 -0.219,-0.687 -0.687,-0.687l-0,-0.906c1.343,-0.907 1.812,-2.032 1.125,-3.594c-0.438,-1.344 -0.688,-2.688 -0.219,-3.813c0.687,-2.937 0.906,-5.844 1.562,-8.781c0.438,-2.688 0.907,-5.625 1.563,-8.313c0.687,-3.156 1.812,-6.531 2.469,-9.687c2.031,-7.656 4.718,-15.063 7.656,-22.281c0.906,-1.813 1.562,-3.375 2.25,-4.938c0.687,-2.25 1.562,-4.062 2.937,-5.843c0.219,-0.688 0.688,-1.125 0.907,-1.813c1.812,-5.187 5.406,-9.437 8.093,-13.937c1.125,-1.813 2.25,-3.375 3.375,-4.938c2.469,-3.375 5.407,-6.531 8.563,-9.437c2.687,-2.688 5.625,-5.188 9.437,-6.532c2.688,-1.125 5.188,-1.125 8.094,-0.906c0.219,0.219 0.688,0.438 1.125,0.438c4.938,-0 8.782,2.687 12.157,5.843c3.593,3.375 6.749,6.75 10.124,10.125c2.469,2.469 3.594,4.719 4.282,8.094l-0,1.563c-0.219,4.281 -0.688,8.312 -3.157,11.687c-0.437,0.438 -0.687,1.125 -1.125,1.813c-0.218,0.437 -0.906,0.437 -1.125,-0c-0.687,-0.438 -1.125,-1.125 -1.562,-1.563c-0.688,-0.906 -1.344,-1.562 -2.469,-1.812c-2.687,-1.125 -5.187,-2.469 -7.187,-4.5c-0.438,-0.688 -1.125,-1.125 -1.563,-1.813c-0.687,-1.344 -0.906,-2.469 -0.219,-4.062l2.032,-5.407c0.437,-1.562 1.125,-3.156 0.906,-4.937c-0,-0.438 -0.219,-0.906 -0.906,-0.906c-2.688,-0.438 -4.938,0.218 -7.438,1.562c-1.344,0.688 -2.937,1.563 -4.062,2.688c-2.688,2.687 -5.406,5.406 -8.094,7.875l-1.125,1.343c-2.469,3.594 -4.938,7.438 -7.438,11.25l-1.562,2.032c-0.906,1.125 -1.344,2.468 -2.031,3.812c-0.438,0.688 -0.688,1.563 -1.344,2.25c-0.906,1.125 -1.563,2.469 -2.031,3.813c-1.125,3.156 -2.688,6.062 -4.282,9c-0.687,1.562 -1.343,3.156 -1.562,4.718c-0.906,3.157 -2.25,5.844 -3.375,8.563c-0.219,0.687 -0.688,1.125 -0.688,1.562c0.001,2.938 -1.124,5.407 -1.812,8.313c-1.344,4.937 -2.469,10.125 -3.375,15.312c-0.688,2.938 -0.688,6.063 -1.125,9c-0.688,2.688 -0.438,5.625 -0.438,8.313c-0.218,0.687 -0.218,1.125 0.001,1.562c0.218,1.125 -0.219,2.938 1.343,3.375c0.906,0.438 2.031,-0.906 2.688,-1.562c4.281,-3.813 8.312,-7.656 11.468,-12.375l4.719,-7.438c1.344,-2.687 2.688,-5.406 3.594,-8.093c1.563,-3.813 2.688,-7.875 4.281,-11.688c0.906,-2.937 1.813,-5.625 2.938,-8.312c1.125,-2.938 2.468,-5.188 2.937,-8.094c1.125,-4.5 3.813,-12.156 5.406,-16.438c0,-0.437 0.438,-0.906 0.688,-1.343c0.906,-1.563 1.344,-1.813 2.937,-0.688c0.688,0.438 1.344,0.906 2.032,1.125c2.687,1.344 4.937,3.156 7.187,5.187l4.063,3.157c0.906,0.906 1.125,2.031 0.687,3.156c-0.146,0.146 -0.219,0.292 -0.219,0.438c-2.25,3.593 -4.718,10.562 -5.406,14.625c-0.437,2.468 -1.125,5.187 -2.031,7.437c-1.344,3.812 -2.25,7.656 -2.688,11.687c-0.218,2.938 -0.687,5.625 -0.906,8.563c-0.219,1.125 -0.687,2.25 -0.906,3.375c-0.219,0.437 -0.438,0.906 -0.438,1.344c0.219,3.593 -0.218,7.187 -0.218,10.812c0.218,0.219 0.687,0.688 0.906,0.438c0.146,-0 0.292,-0.073 0.437,-0.219c4.5,-3.156 6.75,-7.188 9.688,-11.938c1.562,-2.468 3.375,-4.5 4.937,-6.968c1.125,-3.594 4.063,-7.188 5.407,-11.25c2.937,-8.782 6.312,-13.719 8.562,-18.688c0.438,-1.562 0.906,-2.937 2.031,-4.281c0.438,-0.219 0.907,-0.438 1.344,-0.219c0.906,0.438 1.813,0.688 2.688,1.344c3.812,2.25 7.437,4.719 11.25,6.969c1.125,0.906 1.562,1.812 1.125,3.156c-0.688,2.031 -3.813,7.875 -4.5,10.125c-0.688,1.562 -1.344,3.156 -1.813,4.719c-0.687,1.812 -1.562,3.812 -2.469,5.625l-2.937,5.406c-0.906,2.031 -2.031,3.594 -3.156,5.406c-1.344,2.688 -2.469,4.719 -3.594,7.657c-2.469,2.937 -4.281,6.531 -6.969,9.437c-2.687,2.469 -5.406,5.187 -8.781,6.75c-2.938,1.344 -5.844,1.344 -8.781,0.687c-2.938,-0.687 -4.063,-2.031 -6.75,-3.375c-2.032,-1.125 -4.282,-2.031 -6.532,-3.156c-0.687,-0.437 -1.343,-0.906 -2.031,-1.125c-1.125,-0.437 -1.562,-1.812 -2.937,-1.812c-0.688,0.687 -1.125,1.562 -1.813,2.468c-1.125,1.125 -2.031,2.25 -3.375,2.938c-0.687,0.437 -1.344,1.125 -1.812,1.562c-1.344,1.813 -2.938,2.938 -4.5,4.282c-0.688,0.437 -1.344,0.906 -1.813,1.344c-2.937,1.812 -5.844,2.031 -9,0.687c-4.937,-2.031 -9.906,-4.281 -14.406,-7.188l0.031,0.094Z" style="fill:#231f20;fill-rule:nonzero;"/><path d="M176.719,230.219c-4.719,-2.031 -9.438,-4.063 -13.719,-6.531c-7.187,-4.063 -11.469,-10.563 -13.5,-18.688c-0.438,-2.469 -0.219,-5.188 -0.438,-7.656c0,-5.844 0.438,-9.438 1.813,-15.063c0.437,-1.812 0.687,-3.812 1.812,-5.406c0.438,-1.125 0.219,-2.469 0.688,-3.813c1.812,-5.187 1.562,-7.656 4.719,-12.156c0.218,-0.219 0.437,-0.687 0.437,-1.125c0.438,-3.594 2.469,-6.75 4.281,-9.906c2.032,-4.063 4.5,-8.094 6.75,-12.156c0.688,-1.563 1.563,-2.938 2.469,-4.281c2.032,-3.375 4.063,-6.532 5.844,-9.688c1.813,-2.938 4.281,-5.625 6.313,-8.313c0.437,-0.687 0.906,-1.124 1.343,-1.343c1.563,-0.906 2.688,-2.25 3.594,-3.594l3.375,-3.812c0.219,-0.438 0.688,-0.688 1.125,-1.125c1.813,-1.125 3.813,-2.469 5.844,-3.594c1.344,-0.688 2.687,-1.563 4.5,-0.438l0.687,0c0.907,-0.906 2.032,0.219 2.938,-0.218c0.906,-0.688 2.031,-0.438 2.937,0.218c0.907,0.438 2.032,0.907 2.688,1.563c2.687,2.25 5.625,4.5 8.312,6.968c1.125,1.344 2.25,2.469 3.594,3.375c0.906,0.438 1.344,1.125 2.031,2.032c1.344,1.562 2.25,3.593 2.25,5.843c0.219,4.5 -0.906,10.813 -1.812,14.844c-0.906,4.063 -2.938,8.094 -4.719,12.156c-0.906,1.563 -1.812,3.157 -2.937,4.719c-0.907,1.344 -1.563,2.688 -3.157,4.063c-0.437,0.906 -1.343,1.125 -2.25,0.687c-2.25,-1.125 -3.812,-2.25 -6.062,-3.375c0.437,-2.031 -2.25,-1.344 -3.375,-2.031c-1.125,-0.688 -2.688,-1.813 -3.594,-2.688c-1.125,-1.812 1.813,-2.468 4.063,-7.437c0.687,-0.906 2.937,-5.844 3.593,-6.75c2.938,-5.188 3.375,-10.125 4.063,-15.75c-0,-0.688 0.219,-2.031 -1.125,-2.25l-0.688,-0l-0.906,0.687c-2.031,1.563 -4.062,2.938 -5.625,4.719l-3.375,3.156c-0.687,0.438 -1.125,1.125 -1.562,1.813c-2.032,3.594 -4.719,6.75 -7.188,10.125c-0.219,0.437 -0.437,1.125 -0.906,1.562c-1.813,1.563 -2.688,3.375 -3.594,5.407c-1.344,2.937 -2.687,5.625 -4.5,8.093c-0.906,1.125 -1.125,2.688 -2.031,3.813c-0.906,1.125 -2.031,2.25 -2.688,3.594c-0.687,1.344 -0.687,2.937 -1.343,4.062c-0.907,2.25 -1.813,4.063 -3.157,6.313c-0.687,1.125 -2.687,8.094 -3.812,10.812c-1.344,2.469 -1.563,5.188 -2.25,7.875c-0.219,-0.219 -0.438,2.031 -1.563,3.813c0,0.437 -0.218,0.906 0,1.125c0.438,1.562 0,2.937 -0.218,4.281c-0.438,4.937 -0.688,10.125 -0.219,15.062c0.219,2.032 1.125,4.063 1.812,6.063c0.219,0.687 0.907,1.125 1.813,1.344c2.687,-0 3.375,0.218 6.062,-0.438c2.938,-0.687 5.407,-1.812 8.094,-2.937c6.75,-2.938 12.375,-7.438 17.781,-12.375l5.188,-5.188c0.437,-0.437 0.906,-1.125 1.344,-1.344c2.25,-0.906 3.375,-2.687 4.5,-4.718l10.812,-13.282c3.594,-6.062 7.656,-11.687 11.688,-17.312c0.687,-0.906 1.343,-1.125 2.031,-0.438c1.562,0.907 2.937,2.032 4.5,2.938c0.687,0.437 1.125,1.125 1.812,1.562c0.75,0.459 1.354,1.136 1.813,2.032c0.687,1.125 1.562,2.031 3.156,1.812c0.438,0 1.125,0.438 1.813,0.688c1.125,0.687 1.343,1.812 0.687,2.937c-2.469,3.375 -4.719,6.969 -6.062,11.031c-1.563,2.032 -2.938,4.063 -4.282,6.063c-0.218,0.437 -0.437,0.906 -0.906,1.125l-5.187,5.844l-6.75,8.093c-0.907,1.344 -2.032,2.688 -3.375,3.594c-0.438,0.219 -0.688,0.688 -0.907,0.906c-1.812,2.688 -4.281,4.719 -6.75,6.75c-3.812,3.157 -7.656,6.532 -11.937,8.782c-3.375,1.812 -6.969,2.937 -10.344,4.5c-1.344,0.687 -3.156,0.906 -4.719,0.906c-5.406,0.437 -8.562,-0.219 -13.281,-2.469l-0.156,-0.062Z" style="fill:#231f20;fill-rule:nonzero;"/><path d="M251.406,230.656c-4.281,-2.031 -8.781,-4.062 -12.812,-6.312c-3.156,-1.563 -5.844,-4.063 -7.656,-7.188c-0.907,-1.562 -2.032,-3.156 -2.688,-4.937c-0.906,-2.688 -1.344,-5.406 -1.344,-8.094c0,-2.031 -0.219,-4.063 0.219,-6.062c0.437,-3.375 0.219,-6.532 1.125,-9.688c0.219,-1.562 0.219,-3.375 0.687,-4.937c0.438,-1.813 0.907,-3.594 1.563,-5.188c0.219,-0.906 0.437,-1.812 0.437,-2.687c-0.218,-1.563 0.219,-3.375 0.438,-4.938c0.687,-2.937 1.344,-6.062 2.687,-8.781c0.219,-0.438 0.438,-1.125 0.438,-1.563c0.906,-5.187 2.937,-9.906 4.719,-14.625c2.031,-6.062 5.187,-11.937 7.656,-17.781c0.438,-0.906 0.906,-1.562 1.563,-2.25c0.906,-1.125 1.812,-2.031 1.812,-3.594c0,-0.687 0.687,-1.343 1.125,-2.031c2.031,-2.687 3.812,-5.187 5.625,-7.875l0.437,-0.687c2.938,-2.688 5.625,-5.625 9.438,-7.188c3.156,-1.344 6.312,-0.687 9.437,0.438c2.032,0.906 3.594,2.25 5.407,3.593c3.812,3.157 7.437,6.532 11.25,9.438c2.468,2.031 3.812,4.281 3.812,7.437l0,0.688c1.563,3.594 0.219,6.969 0,10.344c-1.344,2.937 -1.562,6.312 -3.375,9c-1.562,2.25 -2.687,4.937 -3.812,7.656c-0.907,1.562 -1.563,3.156 -2.688,4.5c-0.687,0.906 -1.562,2.031 -2.031,2.937c-0.438,1.563 -1.813,2.688 -2.688,3.813c-1.812,2.25 -3.375,4.5 -5.406,6.75c-1.562,1.562 -2.937,3.594 -4.937,4.719c-0.688,0.218 -1.125,0.687 -1.344,1.343c-1.344,1.813 -3.156,2.938 -4.938,4.282c-0.687,0.437 -1.343,0.437 -2.25,0.218c-3.812,-1.562 -7.437,-3.593 -11.031,-5.625c-0.687,-0.218 -1.125,-0.687 -1.812,-0.906c-0.219,0 -0.907,0 -0.907,0.438c-0.437,1.125 -0.906,2.468 -1.125,3.593c-0.437,1.344 -0.437,2.938 -1.125,4.282c-0.687,2.25 -1.125,4.718 -1.125,7.187c-0.218,2.25 -0.687,4.719 -1.343,7.188c-0.438,2.687 -1.125,5.187 -0.907,7.875l0,4.062c0,2.469 -0.218,4.938 0,7.438c0.438,4.062 1.125,4.5 5.188,3.375c2.031,-0.438 3.594,-1.344 5.406,-2.25l3.375,-2.032c0.906,-0.437 1.563,-1.125 2.469,-1.812c2.031,-2.25 4.281,-4.281 6.75,-6.313c2.469,-2.25 4.937,-4.718 7.187,-7.187c2.032,-2.031 3.375,-4.281 5.188,-6.531c2.031,-2.25 4.062,-4.282 6.062,-6.75c1.813,-2.25 2.688,-4.5 4.938,-6.75c1.125,-1.125 2.031,-2.469 2.937,-4.063c2.688,-3.812 4.938,-6.75 7.657,-10.344c2.031,-2.687 4.281,-6.312 6.312,-9.218c0.906,-1.125 1.344,-1.125 2.469,-0.219c0.687,0.219 1.125,0.687 1.562,1.125c1.125,1.125 2.469,1.812 3.813,2.687c1.812,1.125 2.25,1.563 4.281,2.938c1.344,0.687 1.813,1.344 2.938,2.25c0.687,0.437 0.687,0.687 -0,1.562c-1.125,1.344 -1.344,3.157 -2.469,4.282c-0.688,0.437 -1.125,1.812 -1.563,2.031c-0.906,0.906 -0.906,2.031 -1.562,3.375c-0.438,1.125 -1.125,2.25 -2.031,3.156l-0.688,0.906c-1.812,3.813 -4.062,6.969 -6.969,9.907c-1.125,2.468 -1.812,4.281 -3.812,6.062c-2.688,2.938 -4.281,6.063 -6.969,8.781c-0.906,0.907 -1.562,1.563 -2.469,2.25c-0.906,0.438 -1.812,0.438 -2.468,1.125c-0.438,0.438 -0.438,1.563 -1.125,2.032c-1.125,0.687 -1.813,1.562 -1.813,3.156c0,0.437 -0.437,0.906 -0.906,1.125c-4.5,4.5 -8.781,8.781 -13.719,12.594c-2.687,2.25 -6.062,3.593 -9.437,4.5c-1.813,0.687 -3.813,0.437 -5.625,0.218c-2.469,-0.687 -5.188,-1.125 -7.438,-2.25Zm3.157,-64.812c0.218,-0 0.218,-0.219 0.218,-0.219c4.063,-3.813 9,-6.531 11.688,-11.25l1.344,-2.031c2.25,-2.938 4.062,-6.313 5.625,-9.688c1.125,-2.25 2.25,-4.281 3.593,-6.531c2.938,-4.719 3.813,-10.813 4.282,-16.437c-0,-0 -0.438,-0.907 -0.688,-0.907c-0.219,-0.218 -0.437,0 -0.687,0l-0.438,0c-4.062,2.688 -7.437,5.844 -9.906,9.906c-3.594,6.063 -7.438,12.157 -10.344,18.907c-0.687,2.031 -1.812,3.812 -2.469,5.625c-0.906,2.031 -1.344,4.281 -2.25,6.75c-0.218,1.343 -0.906,2.937 -1.562,4.718c-0.219,0.219 -0.688,1.563 -0.438,1.813c0.438,0.438 1.563,-0.438 2.032,-0.688l-0,0.032Z" style="fill:#231f20;fill-rule:nonzero;"/><path d="M35.906,20.406l-12.843,0l-0,-5.062l31.062,-0l0,5.062l-12.813,0l0.001,34.75l-5.407,0l0,-34.75Z" style="fill:#fff;fill-rule:nonzero;"/><path d="M64.219,15.344l25.718,-0l0,5.062l-20.312,0l-0,11.875l18.906,0l0,5.063l-18.906,-0l-0,12.781l21.312,0l0,5.063l-26.718,-0l-0,-39.844Z" style="fill:#fff;fill-rule:nonzero;"/><path d="M117.031,15.344l4.938,-0l17.031,39.812l-6.313,0l-4,-9.843l-18.968,-0l-3.938,9.843l-6.312,0l17.562,-39.812Zm9.719,25.25l-7.438,-18.282l-0.124,0l-7.532,18.282l15.094,-0Z" style="fill:#fff;fill-rule:nonzero;"/><path d="M148.562,15.344l8.094,-0l12.656,30.156l0.219,0l12.531,-30.156l8.032,-0l-0,39.812l-5.407,0l0,-32.75l-0.125,0l-13.437,32.75l-3.594,0l-13.437,-32.75l-0.125,0l-0,32.75l-5.407,0l0,-39.812Z" style="fill:#fff;fill-rule:nonzero;"/><path d="M257,400.188c-5.5,-4.5 -10.5,-9 -15.5,-14c-3.5,-3.5 -6.5,-7.5 -8,-12c-0.5,-2 -0.5,-4 0.5,-6c1,-2.5 2.5,-5 4.5,-7c6.5,-5 10.5,-12 14.5,-19c9.5,-13.5 18.5,-28 29,-40.5l3,-4.5l29,-39c3,-4.5 5.5,-9 9,-12.5l2.5,-3c4.5,-9 11.5,-18 17,-27c8.5,-12 17,-25 25.5,-37.5c4,-5.5 7,-11.5 11.5,-17c5.5,-9.5 11,-19 15.5,-28.5c5.5,-10 11.5,-27.5 13.5,-38.5c0.5,-2.5 0.5,-5.5 0.5,-8.5c3.5,-9 3.5,-18.5 0.5,-28.5c-0,-3.5 -1,-7 -1,-11c0,-0.5 -0.5,-1.5 -1.5,-1.5c-2.5,-1 -5,-2.5 -8,-2.5c-7.5,-0 -15,-0 -22.5,-0.5c-2,-0 -3.5,0.5 -5,1c-5.5,2.5 -10.5,3.5 -16,6.5c-2.5,1.5 -5,3 -8,3.5c-4,1 -7.5,3 -11,6.5l-1,1c-6.5,2.5 -11.5,7.5 -17,11.5c-4.5,3.5 -8,7 -11.5,11.5c-4.5,5 -7.5,10.5 -10.5,16c-3.5,6.5 -4,14 -1,21.5c0.5,1 2,2 0.5,3c-1,-0 -1.5,-2 -2.5,-2.5c-5,-6 -9,-12 -14,-18.5c-5,-8 -8.5,-17 -8,-26.5c-0.5,-12.5 4,-23 14,-31c1.5,-1.5 3.5,-3 4.5,-5c5.5,-6.5 12.5,-12 19.5,-17c3,-2.5 6,-4.5 10,-6c2.5,-0.5 4.5,-2 7,-3.5l12,-6.5c3.5,-2 7.5,-2 11,-3.5c4,-2 8,-2 12,-3c6.5,-1 13.5,-0.5 20,1.5l12.5,3.5c1,0.5 2,1.5 3,2.5c4.5,4 8,8 11,13.5c6,12 12,23.5 17.5,35.5c3.5,8.5 8.5,16 8.5,25c0,5 1,9.5 1.5,14.5c-0.5,4.5 -0.5,9 -0.5,13.5c-0.5,5.5 -2.5,11.5 -3,17c-1,5 -1.5,10 -2.5,15c-2,5.5 -3.5,10.5 -6,15c-3,6 -6.5,12 -8,19c-2,4.5 -4.5,8.5 -8,10.5c-2.5,2 -3.5,4 -3,7c-0.5,1.5 -1.5,3.5 -3,5.5c-4,7.5 -9,15.5 -14.5,22c-1,1.5 -1.5,3 -2,4.5c-3,7 -8,13 -12.5,18.5l-4.5,7.5l-1,1.5c-5,5 -7.5,12 -11.5,17.5c-1,2 -1.5,4.5 -3.5,5.5c-1.5,1 -2,2 -2.5,3c-2.5,6.5 -6.5,12 -11,17c-1.5,2.5 -3.5,4.5 -4.5,7.5l-3,4c-5,7 -10,13.5 -15,20l-1,1.5c0,1 0.5,2.5 2,2.5c5.5,0.5 21,3.5 27,4.5c9.5,1.5 19,3.5 28,6.5c6,2.5 12,4 17.5,6.5c7.5,3.5 14,7.5 17.5,15l3,3l2,3c2.5,3 3.5,6 5,9.5c1.5,3.5 5,4.5 6.5,8.5l0,1c-0.5,-0 -1,0.5 -1.5,-0l-0.5,-0c-6,-4 -13,-5 -19.5,-7.5c-9.5,-3 -19,-5.5 -28.5,-7c-6.5,-2 -13,-2.5 -19.5,-3c-5.5,-0 -11,-0 -26.5,-2c-13,-0.5 -25,3 -36.5,9c-6.5,4 -13,8.5 -18.5,14c-2.5,3 -4,6 -6.5,9c-2,3 -3.5,3 -6.5,1c-1,-0.5 -2,-2 -2.5,-2.5Z" style="fill:#aa1e30;fill-rule:nonzero;"/><path d="M429.312,391.813c-3.156,-0.907 -6.312,-2.25 -9.437,-3.594c-1.125,-0.438 -2.25,-1.563 -3.375,-2.688c-0.906,-0.906 -1.344,-2.031 -0.688,-3.375l0.907,-4.281l2.468,-7.188l1.563,-7.656c0.906,-3.156 1.562,-6.312 2.25,-9.437c0.437,-1.344 1.344,-2.25 1.562,-3.813c0.438,-1.125 0.219,-2.469 0.688,-3.812c1.812,-6.75 4.062,-13.5 5.844,-20.032c2.031,-7.656 3.812,-15.312 5.843,-22.718l3.375,-12.813c1.125,-4.281 2.25,-8.562 3.594,-13.062c0.906,-3.157 1.813,-6.532 2.469,-9.438l-0,-0.437c2.031,-5.844 3.156,-12.157 4.719,-18l9,-31.282c0.437,-0.906 0.687,-2.031 0.906,-2.937c0.437,-1.344 2.031,-1.563 2.937,-0.438c1.563,2.032 3.813,3.375 5.407,5.407c2.25,2.031 3.812,4.5 5.843,6.75c0.907,0.687 0.907,1.562 0.438,2.468c-0.688,2.25 -1.125,4.5 -2.031,6.75c-1.125,3.375 -2.469,6.969 -3.375,10.563l-0.688,2.469c-0.437,2.687 -1.812,4.718 -2.937,6.75c-0.219,0.437 -0.688,0.687 -1.125,1.125c-0.219,0.218 -0.219,0.437 -0,0.687c0.437,0.438 0.687,1.125 1.125,1.563c-0.907,1.344 -0.219,2.687 -0.907,4.062c-0.906,2.25 -1.125,4.5 -1.812,6.75c-0.906,4.063 -2.031,8.094 -3.375,11.938c-0.438,1.343 -0.438,2.937 -0.906,4.5c-0.907,4.062 -2.25,8.312 -3.157,12.375c-0.437,2.25 -0.687,4.281 -1.562,6.312c-0.438,1.125 -1.125,5.625 -1.344,6.969l0.219,0.219c0.219,-0 0.437,-0 0.687,-0.219c2.938,-3.813 7.188,-10.563 9.907,-14.844c0.687,-1.125 1.812,-2.469 3.156,-2.687c0.687,-0.438 1.125,-1.125 1.344,-1.813c0.218,-1.344 1.125,-2.469 2.031,-3.375l0.687,-0.687c2.938,-4.719 7.657,-8.094 11.938,-11.688c0.687,-0.437 1.344,-0.906 1.812,-1.562c1.563,-2.688 4.063,-4.282 6.313,-6.313c1.562,-1.812 3.594,-2.687 5.844,-3.812c1.812,-0.688 2.937,-0.219 4.062,0.906c2.938,2.938 6.063,5.188 9.219,8.313c0.906,0.906 1.812,1.562 2.469,2.468c1.343,0.906 2.031,2.031 2.687,3.375c0.219,0.219 0.438,0.906 0.219,1.344c0.437,3.813 -0.438,7.438 -1.813,11.031l-2.031,5.406c-0.437,2.469 -1.562,4.938 -2.687,7.188c-1.563,2.469 -2.25,4.938 -3.594,7.188c-1.125,3.375 -1.813,7.187 -3.813,9.906c-0.687,0.906 -0.906,2.031 -1.343,2.937c-0.907,1.813 -1.813,3.594 -2.25,5.625c-0,0.438 -0,0.688 -0.219,1.125c-0.688,2.031 -2.031,3.594 -2.688,5.844c-0.218,2.25 -1.125,4.281 -2.25,6.313c-0.687,1.812 -1.343,3.812 -1.562,5.843c-0.688,3.813 -2.031,7.438 -2.469,11.25c0,1.344 -0.687,2.469 -1.125,3.813c-0.687,2.25 -1.125,4.5 -1.562,6.75c-0,0.906 -0,1.812 0.218,2.687c0.688,-0.437 1.344,-0.906 2.032,-1.562c1.812,-2.031 3.375,-4.063 5.406,-6.531c4.062,-4.938 7.656,-10.125 11.25,-15.532c0.906,-1.125 1.562,-2.25 2.687,-3.594c0.688,-1.343 1.344,-2.687 2.25,-4.062c0.438,-0.688 5.407,-8.563 6.063,-9c1.812,-1.813 3.594,-5.625 4.937,-7.437c0.219,-0.438 0.688,-0.907 1.125,-1.344c0.438,-0.219 0.907,-0.438 1.344,-0c2.25,1.125 4.281,2.469 6.313,3.812c0.437,0.219 0.687,0.688 0.906,1.125c0.687,1.813 1.344,2.469 2.937,2.469c1.344,0.219 2.25,0.438 3.157,1.125c1.812,1.125 2.031,2.031 1.125,3.813c-0.438,0.906 -1.125,1.562 -1.813,2.25c-2.937,4.5 -9,14.843 -11.25,17.781c0,0.219 -0.219,0.219 -0.219,0.437c-0.687,2.25 -2.468,4.063 -3.593,5.844l-4.063,5.406c-1.125,1.563 -2.25,2.938 -3.375,4.719c-1.125,1.812 -2.25,3.375 -3.812,4.719c-0.688,0.437 -1.344,1.125 -2.032,1.125c-1.562,-0 -1.125,1.125 -1.562,2.468c-0.438,1.344 -1.563,2.032 -2.469,2.688c-0.219,0.437 -0.687,0.687 -1.125,0.687c-1.562,0 -2.687,0.438 -3.156,2.032c-0.219,0.218 -0.438,0.218 -0.438,0.437c-2.937,3.375 -6.062,4.063 -10.343,2.688l-12.594,-4.719c-4.719,-2.031 -6.969,-5.844 -8.313,-10.125c-0.218,-0.906 -0.218,-1.813 -0.218,-2.688c-0,-2.687 0.437,-5.187 0.437,-7.875c0,-2.468 0.688,-4.937 1.344,-7.187l3.375,-12.594c0.219,-1.812 1.125,-3.156 1.562,-4.937c0.907,-3.594 2.469,-6.75 3.157,-10.563c-0,-0.437 -0,-0.687 0.218,-1.125l6.75,-16.875c0.688,-1.562 1.563,-3.156 1.813,-4.719c0.687,-1.343 1.562,-2.937 2.25,-4.5l1.812,-4.281c0,-0.219 0,-0.437 -0.218,-0.906c-0.688,-0.219 -0.438,0.687 -0.907,0.687c-0.218,0.219 -0.687,0.438 -0.906,0.907c-0.437,0.687 -0.906,1.343 -1.812,1.562c-0.907,0.219 -1.125,0.688 -1.125,1.125c-0.219,1.813 -1.563,2.688 -2.469,4.063c-0.688,0.906 -1.563,1.562 -2.25,2.031c-1.125,1.812 -2.469,3.375 -3.375,5.406c-0.906,2.031 -2.938,3.375 -4.281,5.188c-1.125,1.125 -2.032,2.25 -2.688,3.375c-0.437,0.687 -0.906,1.343 -1.562,1.812c-1.125,0.906 -2.032,2.031 -2.25,3.594c-0.219,1.562 -1.125,2.937 -2.25,3.594c-1.344,0.906 -2.032,2.031 -2.688,2.937c-0.437,0.438 -0.687,0.906 -0.687,1.344c-1.125,4.719 -4.719,8.312 -6.75,12.594c-0.219,0.437 -0.688,0.687 -0.907,1.125l-4.5,8.093l-4.281,8.313c-2.031,3.812 -3.594,7.875 -5.625,11.469c-0.906,1.343 -1.562,3.156 -1.812,4.718c-0.688,1.813 -1.344,3.594 -1.813,5.407c-0.687,1.125 -0.906,2.468 -1.344,3.593c-0.218,1.125 -1.125,1.563 -2.25,1.344l-2.687,-0.687l-0.063,-0.031Z" style="fill:#231f20;fill-rule:nonzero;"/><path d="M540.906,389.813c-4.281,-2.032 -8.781,-4.063 -12.812,-6.313c-3.157,-1.563 -5.844,-4.063 -7.657,-7.188c-0.906,-1.562 -2.031,-3.156 -2.687,-4.937c-0.906,-2.688 -1.344,-5.406 -1.344,-8.094c0,-2.031 -0.218,-4.062 0.219,-6.062c0.437,-3.375 0.219,-6.532 1.125,-9.688c0.219,-1.562 0.219,-3.375 0.688,-4.937c0.437,-1.813 0.906,-3.594 1.562,-5.188c0.219,-0.906 0.438,-1.812 0.438,-2.687c-0.219,-1.563 0.218,-3.375 0.437,-4.938c0.687,-2.937 1.344,-6.062 2.688,-8.781c0.218,-0.438 0.437,-1.125 0.437,-1.563c0.906,-5.187 2.937,-9.906 4.719,-14.625c2.031,-6.062 5.187,-11.937 7.656,-17.781c0.437,-0.906 0.906,-1.562 1.562,-2.25c0.907,-1.125 1.813,-2.031 1.813,-3.594c-0,-0.687 0.687,-1.343 1.125,-2.031c2.031,-2.687 3.812,-5.187 5.625,-7.875l0.437,-0.687c2.938,-2.688 5.625,-5.625 9.438,-7.188c3.156,-1.344 6.313,-0.687 9.438,0.438c2.031,0.906 3.593,2.25 5.406,3.593c3.812,3.157 7.437,6.532 11.25,9.438c2.468,2.031 3.812,4.281 3.812,7.437l0,0.688c1.563,3.594 0.219,6.969 0,10.344c-1.344,2.937 -1.562,6.312 -3.375,9c-1.562,2.25 -2.687,4.937 -3.812,7.656c-0.907,1.562 -1.563,3.156 -2.688,4.5c-0.687,0.906 -1.562,2.031 -2.031,2.937c-0.438,1.563 -1.813,2.688 -2.688,3.813c-1.812,2.25 -3.375,4.5 -5.406,6.75c-1.562,1.562 -2.937,3.594 -4.937,4.719c-0.688,0.218 -1.125,0.687 -1.344,1.343c-1.344,1.813 -3.156,2.938 -4.938,4.282c-0.687,0.437 -1.343,0.437 -2.25,0.218c-3.812,-1.562 -7.437,-3.593 -11.031,-5.625c-0.687,-0.218 -1.125,-0.687 -1.812,-0.906c-0.219,0 -0.907,0 -0.907,0.438c-0.437,1.125 -0.906,2.468 -1.125,3.593c-0.437,1.344 -0.437,2.938 -1.125,4.282c-0.687,2.25 -1.125,4.718 -1.125,7.187c-0.218,2.25 -0.687,4.719 -1.343,7.188c-0.438,2.687 -1.125,5.187 -0.907,7.875l0,4.062c0,2.469 -0.218,4.938 0,7.438c0.438,4.062 1.125,4.5 5.188,3.375c2.031,-0.438 3.594,-1.344 5.406,-2.25l3.375,-2.031c0.906,-0.438 1.563,-1.125 2.469,-1.813c2.031,-2.25 4.281,-4.281 6.75,-6.313c2.469,-2.25 4.937,-4.718 7.187,-7.187c2.032,-2.031 3.375,-4.281 5.188,-6.531c2.031,-2.25 4.062,-4.282 6.062,-6.75c1.813,-2.25 2.688,-4.5 4.938,-6.75c1.125,-1.125 2.031,-2.469 2.937,-4.063c2.688,-3.812 4.938,-6.75 7.657,-10.344c2.031,-2.687 4.281,-6.312 6.312,-9.218c0.906,-1.125 1.344,-1.125 2.469,-0.219c0.687,0.219 1.125,0.687 1.562,1.125c1.125,1.125 2.469,1.812 3.813,2.687c1.812,1.125 2.25,1.563 4.281,2.938c1.344,0.687 1.813,1.344 2.938,2.25c0.687,0.437 0.687,0.687 -0,1.562c-1.125,1.344 -1.344,3.157 -2.469,4.282c-0.688,0.437 -1.125,1.812 -1.563,2.031c-0.906,0.906 -0.906,2.031 -1.562,3.375c-0.438,1.125 -1.125,2.25 -2.031,3.156l-0.688,0.906c-1.812,3.813 -4.062,6.969 -6.969,9.907c-1.125,2.469 -1.812,4.281 -3.812,6.062c-2.688,2.938 -4.281,6.063 -6.969,8.781c-0.906,0.907 -1.562,1.563 -2.469,2.25c-0.906,0.438 -1.812,0.438 -2.468,1.126c-0.438,0.437 -0.438,1.562 -1.125,2.031c-1.125,0.687 -1.813,1.562 -1.813,3.156c0,0.438 -0.437,0.906 -0.906,1.125c-4.5,4.5 -8.781,8.781 -13.719,12.594c-2.687,2.25 -6.062,3.594 -9.437,4.5c-1.813,0.687 -3.813,0.437 -5.625,0.219c-2.469,-0.688 -5.188,-1.125 -7.438,-2.25Zm3.157,-64.813c0.218,0 0.218,-0.219 0.218,-0.219c4.063,-3.812 9,-6.531 11.688,-11.25l1.344,-2.031c2.25,-2.938 4.062,-6.313 5.625,-9.688c1.125,-2.249 2.25,-4.281 3.593,-6.531c2.938,-4.719 3.813,-10.812 4.282,-16.437c-0,-0 -0.438,-0.906 -0.688,-0.906c-0.219,-0.219 -0.437,-0 -0.687,-0l-0.438,-0c-4.062,2.687 -7.437,5.843 -9.906,9.906c-3.594,6.062 -7.438,12.156 -10.344,18.906c-0.687,2.031 -1.812,3.813 -2.469,5.625c-0.906,2.031 -1.343,4.281 -2.25,6.75c-0.218,1.344 -0.906,2.937 -1.562,4.719c-0.219,0.218 -0.688,1.562 -0.438,1.812c0.438,0.438 1.563,-0.437 2.032,-0.687l-0,0.031Z" style="fill:#231f20;fill-rule:nonzero;"/><path d="M607.719,396.562c-4.063,-1.125 -6.75,-2.25 -10.813,-3.593c-2.937,-1.125 -5.187,-3.156 -7.187,-5.625c-2.25,-2.688 -3.594,-5.844 -3.375,-9.438c-0,-2.25 -0.438,-4.281 -0.688,-6.312c-0.219,-2.032 0.688,-3.813 0.688,-5.625c-0,-5.625 1.125,-11.032 2.468,-16.438c0.688,-4.062 1.563,-7.875 2.25,-11.937c0.688,-3.157 1.563,-6.313 2.25,-9.688c0.688,-3.156 1.813,-6.312 2.469,-9.437c0.688,-4.063 2.031,-7.875 2.688,-11.938c0.906,-4.719 2.25,-9.437 3.375,-14.406c1.562,-6.75 3.156,-13.5 5.187,-20.031c2.469,-8.094 11.031,-45.688 13.281,-53.563c0.438,-1.562 0.438,-3.156 1.125,-4.5c0.438,-0.906 -0.218,-1.812 -0.437,-2.687c-0.438,-1.344 0.437,-2.938 1.813,-3.375l0.687,-0c0.688,0.437 1.125,0.687 1.563,1.125c3.156,2.687 6.531,4.718 9,8.093c0.687,0.907 1.812,1.563 2.937,2.469c0.688,0.688 0.906,1.563 0.906,2.469c-0.218,0.906 2.032,3.375 1.813,4.281c-0.906,3.594 -0.438,7.438 -1.344,11.25c-1.125,4.5 -2.031,9.219 -4.062,20.25c-1.344,3.813 -3.157,7.875 -4.063,11.938c0,0.219 -0.219,0.437 -0.437,0.687c-0.438,1.125 -1.344,2.469 -1.344,3.594c-0,1.125 -0.438,2.25 -0.688,3.375c-0.687,2.688 -1.125,5.625 -2.468,8.094c-0.688,0.906 -0,1.562 -0.219,2.469c-1.344,4.937 -4.063,8.312 -5.188,13.062c0,0.438 -0.437,0.906 -0.437,1.125c0.219,3.156 -2.469,5.844 -2.688,8.781c0,0.438 -0.218,0.907 -0.218,1.563c-0.688,1.125 -0.688,2.25 -0.907,3.594c-0.437,1.812 -0.437,3.593 -1.562,5.187c-0.438,0.438 -0.438,1.125 -0.438,1.813c0.219,3.156 -0.687,6.062 -1.562,9c-0.438,2.468 -0.906,4.937 -1.813,7.187c-0.437,1.344 0.219,2.469 -0.437,3.813c-0.438,0.906 -0.688,2.25 -0.906,3.375l-0.688,3.593c-0.219,0.688 -0.219,1.344 -0.437,2.032c-1.125,3.156 -1.125,6.531 -2.032,9.687c-0.687,2.469 -0.437,4.938 -0.906,7.438c-0.437,3.156 -0.219,6.312 -0.437,9.437l-0,3.156c-0,0.688 -0.438,1.813 0.687,2.032c0.688,-0 0.906,-0.907 1.344,-1.344c3.594,-3.594 5.844,-7.656 8.312,-12.156c1.125,-2.25 2.469,-4.719 4.282,-6.75c0.906,-1.125 1.343,-2.25 1.562,-3.594c0,-1.813 1.813,-3.156 2.469,-4.5c0.906,-1.813 1.125,-3.375 2.031,-5.188l0.688,-0.906c1.812,-1.125 3.812,-5.625 4.5,-7.437c0.906,-2.032 1.562,-4.063 2.468,-6.063l2.032,-4.719c0.437,-1.562 1.125,-3.156 1.812,-4.5c0.688,-1.343 1.125,-2.468 1.813,-3.593c0.906,-1.563 1.562,-1.813 3.156,-0.907c3.594,1.563 5.625,3.157 9.219,4.938c1.343,0.687 2.468,1.344 3.593,2.031c1.125,0.688 1.125,1.125 0.688,2.469c-0.219,0.437 -0.438,1.125 -0.906,1.562c-1.344,2.469 -2.688,4.938 -3.375,7.875c-0.438,1.563 -1.125,3.375 -2.688,4.5c-0.906,0.907 -0.906,2.032 -0.906,2.938c-1.563,2.687 -2.688,7.187 -4.063,9.219c-0.906,1.343 -1.812,2.687 -2.468,4.5c-0.219,1.125 -0.907,2.25 -1.563,3.375l-6.969,13.718l-1.562,2.032c-0.438,0.687 -1.344,1.562 -1.563,2.468c-0.218,1.813 -1.343,2.688 -2.25,4.063l-4.062,5.187c-2.469,2.688 -5.406,4.5 -9.219,4.282l-1.344,-0c-1.125,-0 -2.687,-0.219 -4.281,-0.907l-0.156,0.031Z" style="fill:#231f20;fill-rule:nonzero;"/><path d="M614.469,426.937c-0.438,-0.218 -1.125,-0.437 -1.563,-0.906c-2.937,-2.469 -4.281,-3.812 -2.687,-7.656c1.125,-2.688 1.812,-5.406 2.687,-8.313c1.344,-4.499 2.688,-9.218 3.594,-13.718c1.125,-6.75 4.937,-20.031 6.969,-26.563c1.812,-5.625 3.375,-10.812 5.625,-16.187c1.343,-3.375 2.25,-7.188 3.593,-11.031c0.438,-1.125 0.688,-2.25 1.125,-3.157c1.125,-2.031 1.563,-4.062 1.813,-6.312c0.219,-2.031 0.906,-4.063 1.344,-6.063c1.343,-4.062 2.031,-8.562 3.375,-12.812c1.562,-4.938 2.468,-9.438 3.812,-14.188c0.688,-2.469 0.906,-4.937 1.563,-7.437c1.343,-4.5 1.812,-9 3.593,-13.719c0.688,-1.812 1.126,-3.812 1.344,-5.625c0.219,-2.469 1.125,-4.5 2.032,-6.969c-0,-0.437 0.218,-1.125 0.437,-1.343c0.906,-0.907 1.125,-1.813 1.125,-2.938c0,-1.812 0.906,-3.594 1.344,-5.187c0.437,-0.907 1.812,-1.125 2.687,-0.438c1.125,0.906 1.813,2.469 2.688,3.156c0.687,0.438 1.125,0.688 1.812,0.688c1.344,-0 2.469,0.437 3.375,1.125c2.25,1.562 4.282,2.937 6.532,4.719c0.437,0.218 0.906,0.687 0.687,1.343c-0.688,2.25 -1.344,4.719 -2.937,6.532l-0.688,1.562c0.219,2.688 -0.687,5.406 -1.813,7.875c-0.218,1.344 -0.687,2.688 -1.125,4.063c-0.218,0.906 -0.218,2.031 0.219,3.156c0.688,-0 1.125,-0.688 1.563,-1.125l9.437,-12.813c0.438,-0.437 0.688,-0.906 1.125,-0.906c2.938,-1.812 5.188,-3.812 7.875,-5.844c2.032,-1.562 4.719,-2.031 7.438,-0.687c5.187,3.375 10.562,6.531 15.531,10.125c1.813,1.344 3.375,2.937 4.063,5.187c0.687,1.563 0.437,2.938 0.687,4.5c0.219,1.344 0,2.938 0.438,4.5c0.218,0.907 1.562,1.813 1.343,2.688c-0.906,2.031 -0.687,4.062 -1.562,6.062c-0.219,0.438 -0.219,0.907 -0.219,1.563c0,1.812 -0.437,3.156 -2.25,4.062c-0.219,0.219 -0.437,0.688 -0.219,0.907c1.344,1.343 2.032,3.156 1.563,4.5c-0.906,3.593 -3.594,11.687 -4.5,15.312c-1.344,5.406 -3.594,10.813 -5.625,15.969c-0.438,2.031 -1.344,4.062 -2.469,5.625c-1.125,1.344 -1.125,3.156 -1.562,4.719c-0.438,1.125 -0.688,2.468 -1.344,3.593l-1.344,2.938c-0.437,1.812 -1.562,3.594 -2.687,5.406c-1.344,1.563 -2.032,3.156 -2.938,4.938c-1.344,3.156 -3.156,5.843 -6.312,7.656c-0.907,0.219 -1.344,1.125 -1.813,1.812c-0.687,1.344 -2.031,1.813 -3.156,2.469c-2.031,1.125 -6.313,2.25 -8.781,2.469c-3.375,0.219 -6.063,0.437 -8.782,-0.688c-4.062,-1.562 -7.875,-2.937 -11.468,-4.718c-1.344,-0.219 -2.469,-0.907 -3.594,-1.813c-0.906,-0.219 -1.125,-1.562 -2.031,-1.125c-1.344,0 -1.563,1.344 -2.032,2.469l-3.812,12.156c-0.219,1.562 -1.125,3.156 -1.563,4.719c-1.812,6.531 -3.812,12.812 -5.625,19.343c-1.125,4.063 -2.25,8.094 -3.812,12.157c-0.438,0.906 -0.906,1.812 -1.125,2.468c-0.438,0.688 -0.906,0.907 -1.813,0.438c-3.812,-1.344 -7.656,-2.938 -11.25,-4.719l0.063,0.031Zm43.875,-53.343c2.468,-0.906 6.968,-2.469 9,-4.719c4.062,-3.813 7.656,-7.656 9.437,-13.063l0,-0.437c2.031,-2.937 3.375,-6.313 4.719,-9.438c0.687,-2.468 1.812,-4.937 2.937,-7.437c3.594,-7.875 7.188,-20.688 9.907,-28.344c0.906,-2.469 0.437,-4.281 0.906,-6.75c0.437,-2.687 1.344,-5.406 2.031,-8.312c0.438,-2.25 -0.687,-4.5 -0.437,-6.75c0.218,-0.219 0.218,-0.688 0.218,-0.688c-0.218,-0.218 -0.687,-0.218 -0.687,0c-2.031,1.125 -3.375,2.938 -5.188,4.063c-0.687,-0 -1.125,0.437 -1.343,1.125c-0.438,1.125 -1.344,2.031 -2.469,2.937c-1.563,1.125 -2.688,2.688 -3.594,4.5l-0.687,1.344l-7.188,9c-2.031,2.688 -6.062,9.688 -7.437,12.594c-1.125,2.25 -2.25,4.5 -3.813,6.312c-1.125,1.344 -2.031,2.938 -2.937,4.5c-0.219,0.438 -0.438,0.907 -0.438,1.344c0,1.344 -0.906,2.469 -1.344,3.594c-1.343,3.594 -3.156,6.969 -4.5,10.812c-0.437,1.125 -0.906,2.25 -2.031,2.938c-0.687,0.219 -0.906,1.125 -1.125,2.031l-0.687,3.156l-0.438,1.344c0,1.344 0.219,2.031 1.125,2.469c0.907,0.437 1.344,1.125 2.032,1.344c1.125,0.687 1.343,1.343 1.343,2.25l-0.218,2.031c-0.219,2.031 0.437,3.812 0.687,5.625c0.219,0.906 0.906,1.344 1.813,0.906c0.145,0 0.291,-0.073 0.437,-0.219l-0.031,-0.062Z" style="fill:#231f20;fill-rule:nonzero;"/><path d="M0,0l262.5,0c0,37.938 -30.813,68.75 -68.75,68.75l-193.75,0l0,-68.75Z" style="fill:#aa1e30;fill-rule:nonzero;"/><path d="M6.844,228.625c-1.125,-0.438 -2.25,-0.906 -2.938,-1.344c-2.031,-1.344 -3.593,-3.375 -3.156,-5.844l1.125,-6.531c0.687,-4.062 1.562,-11.469 3.156,-15.312c0.219,-3.813 1.563,-7.438 2.469,-11.032l4.937,-16.656c0.907,-3.156 1.813,-6.531 3.375,-9.687l0.688,-2.469c0.687,-2.687 1.344,-5.406 2.25,-8.094c0.437,-1.812 1.344,-3.375 2.031,-5.187c0.688,-0.907 1.344,-2.032 1.344,-3.156c-0.219,-2.469 0.687,-4.719 1.812,-6.969c0.688,-1.125 0.907,-2.469 1.344,-3.594c0.219,-2.031 1.125,-3.812 1.813,-5.844c2.031,-6.75 3.375,-13.281 4.718,-20.031c0.219,-0.906 0.438,-1.812 1.125,-2.469c0.688,-0.687 1.125,-0.906 2.032,-0.687c0.906,0.687 2.031,0.906 2.687,1.812c0.906,0.907 1.813,1.563 2.938,2.032c1.125,0.687 2.25,1.125 2.937,2.25c1.125,1.343 1.563,1.343 2.688,2.468c0.687,0.907 1.125,1.563 1.125,2.938c-0,0.687 -0.907,5.844 -0.219,6.969c1.562,-1.563 4.937,-6.532 6.062,-8.313c1.125,-1.344 2.25,-2.25 3.594,-3.375c0.906,-1.344 2.25,-2.031 2.688,-3.594c3.593,-3.593 7.187,-6.968 12.156,-8.312c2.937,-0.688 5.625,-0 8.312,0.437c0.438,0 0.907,0.438 1.344,0.907l4.938,3.812c0.906,0.688 1.812,1.344 2.687,2.25c0.438,0.219 0.906,0.688 0.906,1.125c0.219,1.344 2.032,1.125 2.469,2.469l0.688,2.031c-2.938,0 -5.625,-0.437 -7.657,0.438c-2.468,0.906 -4.5,2.468 -6.531,4.499c-1.344,1.344 -3.156,2.688 -4.937,4.063c-1.563,1.344 -2.688,3.375 -3.813,4.719c-1.344,1.562 -2.25,3.156 -3.594,4.718c-0.906,0.907 -1.812,2.032 -3.375,2.25c-1.125,0 -1.125,0.219 -1.125,1.563c0.219,1.125 -0.437,1.813 -0.906,2.469c-0.906,1.344 -2.25,2.25 -2.687,3.375l-2.25,2.937c-1.563,2.25 -2.938,4.719 -4.719,6.969c-2.469,3.813 -4.281,7.656 -6.75,11.25c-2.031,3.813 -3.375,7.875 -5.844,11.031c-0.687,0.688 -0.906,1.344 -1.125,2.25c-0.437,2.031 -0.687,4.281 -2.25,6.313c-0.687,2.469 -2.031,4.719 -2.687,7.437c-0.438,1.563 -1.125,2.938 -1.813,4.281c-0.687,0.907 -1.125,2.25 -1.562,3.375c-2.032,6.532 -3.813,16.188 -6.063,22.282c-1.125,3.375 -2.031,7.187 -2.687,10.562c-1.563,5.188 -2.032,3.813 -5.844,2.688c-2.688,-0.688 -5.188,-1.813 -7.875,-2.469l-0.031,0Z" style="fill:#231f20;fill-rule:nonzero;"/><path d="M75.031,227.281c-4.5,-2.937 -7.656,-6.969 -9.437,-11.937c-1.125,-2.688 -2.032,-5.406 -1.813,-8.313c0,-0.218 -0.219,-0.687 -0.687,-0.687l-0,-0.906c1.343,-0.907 1.812,-2.032 1.125,-3.594c-0.438,-1.344 -0.688,-2.688 -0.219,-3.813c0.687,-2.937 0.906,-5.844 1.562,-8.781c0.438,-2.688 0.907,-5.625 1.563,-8.313c0.687,-3.156 1.812,-6.531 2.469,-9.687c2.031,-7.656 4.718,-15.063 7.656,-22.281c0.906,-1.813 1.562,-3.375 2.25,-4.938c0.687,-2.25 1.562,-4.062 2.937,-5.843c0.219,-0.688 0.688,-1.125 0.907,-1.813c1.812,-5.187 5.406,-9.437 8.093,-13.937c1.125,-1.813 2.25,-3.375 3.375,-4.938c2.469,-3.375 5.407,-6.531 8.563,-9.437c2.687,-2.688 5.625,-5.188 9.437,-6.532c2.688,-1.125 5.188,-1.125 8.094,-0.906c0.219,0.219 0.688,0.438 1.125,0.438c4.938,-0 8.782,2.687 12.157,5.843c3.593,3.375 6.749,6.75 10.124,10.125c2.469,2.469 3.594,4.719 4.282,8.094l-0,1.563c-0.219,4.281 -0.688,8.312 -3.157,11.687c-0.437,0.438 -0.687,1.125 -1.125,1.813c-0.218,0.437 -0.906,0.437 -1.125,-0c-0.687,-0.438 -1.125,-1.125 -1.562,-1.563c-0.688,-0.906 -1.344,-1.562 -2.469,-1.812c-2.687,-1.125 -5.187,-2.469 -7.187,-4.5c-0.438,-0.688 -1.125,-1.125 -1.563,-1.813c-0.687,-1.344 -0.906,-2.469 -0.219,-4.062l2.032,-5.407c0.437,-1.562 1.125,-3.156 0.906,-4.937c-0,-0.438 -0.219,-0.906 -0.906,-0.906c-2.688,-0.438 -4.938,0.218 -7.438,1.562c-1.344,0.688 -2.937,1.563 -4.062,2.688c-2.688,2.687 -5.406,5.406 -8.094,7.875l-1.125,1.343c-2.469,3.594 -4.938,7.438 -7.438,11.25l-1.562,2.032c-0.906,1.125 -1.344,2.468 -2.031,3.812c-0.438,0.688 -0.688,1.563 -1.344,2.25c-0.906,1.125 -1.563,2.469 -2.031,3.813c-1.125,3.156 -2.688,6.062 -4.282,9c-0.687,1.562 -1.343,3.156 -1.562,4.718c-0.906,3.157 -2.25,5.844 -3.375,8.563c-0.219,0.687 -0.688,1.125 -0.688,1.562c0.001,2.938 -1.124,5.407 -1.812,8.313c-1.344,4.937 -2.469,10.125 -3.375,15.312c-0.688,2.938 -0.688,6.063 -1.125,9c-0.688,2.688 -0.438,5.625 -0.438,8.313c-0.218,0.687 -0.218,1.125 0.001,1.562c0.218,1.125 -0.219,2.938 1.343,3.375c0.906,0.438 2.031,-0.906 2.688,-1.562c4.281,-3.813 8.312,-7.656 11.468,-12.375l4.719,-7.438c1.344,-2.687 2.688,-5.406 3.594,-8.093c1.563,-3.813 2.688,-7.875 4.281,-11.688c0.906,-2.937 1.813,-5.625 2.938,-8.312c1.125,-2.938 2.468,-5.188 2.937,-8.094c1.125,-4.5 3.813,-12.156 5.406,-16.438c0,-0.437 0.438,-0.906 0.688,-1.343c0.906,-1.563 1.344,-1.813 2.937,-0.688c0.688,0.438 1.344,0.906 2.032,1.125c2.687,1.344 4.937,3.156 7.187,5.187l4.063,3.157c0.906,0.906 1.125,2.031 0.687,3.156c-0.146,0.146 -0.219,0.292 -0.219,0.438c-2.25,3.593 -4.718,10.562 -5.406,14.625c-0.437,2.468 -1.125,5.187 -2.031,7.437c-1.344,3.812 -2.25,7.656 -2.688,11.687c-0.218,2.938 -0.687,5.625 -0.906,8.563c-0.219,1.125 -0.687,2.25 -0.906,3.375c-0.219,0.437 -0.438,0.906 -0.438,1.344c0.219,3.593 -0.218,7.187 -0.218,10.812c0.218,0.219 0.687,0.688 0.906,0.438c0.146,-0 0.292,-0.073 0.437,-0.219c4.5,-3.156 6.75,-7.188 9.688,-11.938c1.562,-2.468 3.375,-4.5 4.937,-6.968c1.125,-3.594 4.063,-7.188 5.407,-11.25c2.937,-8.782 6.312,-13.719 8.562,-18.688c0.438,-1.562 0.906,-2.937 2.031,-4.281c0.438,-0.219 0.907,-0.438 1.344,-0.219c0.906,0.438 1.813,0.688 2.688,1.344c3.812,2.25 7.437,4.719 11.25,6.969c1.125,0.906 1.562,1.812 1.125,3.156c-0.688,2.031 -3.813,7.875 -4.5,10.125c-0.688,1.562 -1.344,3.156 -1.813,4.719c-0.687,1.812 -1.562,3.812 -2.469,5.625l-2.937,5.406c-0.906,2.031 -2.031,3.594 -3.156,5.406c-1.344,2.688 -2.469,4.719 -3.594,7.657c-2.469,2.937 -4.281,6.531 -6.969,9.437c-2.687,2.469 -5.406,5.187 -8.781,6.75c-2.938,1.344 -5.844,1.344 -8.781,0.687c-2.938,-0.687 -4.063,-2.031 -6.75,-3.375c-2.032,-1.125 -4.282,-2.031 -6.532,-3.156c-0.687,-0.437 -1.343,-0.906 -2.031,-1.125c-1.125,-0.437 -1.562,-1.812 -2.937,-1.812c-0.688,0.687 -1.125,1.562 -1.813,2.468c-1.125,1.125 -2.031,2.25 -3.375,2.938c-0.687,0.437 -1.344,1.125 -1.812,1.562c-1.344,1.813 -2.938,2.938 -4.5,4.282c-0.688,0.437 -1.344,0.906 -1.813,1.344c-2.937,1.812 -5.844,2.031 -9,0.687c-4.937,-2.031 -9.906,-4.281 -14.406,-7.188l0.031,0.094Z" style="fill:#231f20;fill-rule:nonzero;"/><path d="M176.719,230.219c-4.719,-2.031 -9.438,-4.063 -13.719,-6.531c-7.187,-4.063 -11.469,-10.563 -13.5,-18.688c-0.438,-2.469 -0.219,-5.188 -0.438,-7.656c0,-5.844 0.438,-9.438 1.813,-15.063c0.437,-1.812 0.687,-3.812 1.812,-5.406c0.438,-1.125 0.219,-2.469 0.688,-3.813c1.812,-5.187 1.562,-7.656 4.719,-12.156c0.218,-0.219 0.437,-0.687 0.437,-1.125c0.438,-3.594 2.469,-6.75 4.281,-9.906c2.032,-4.063 4.5,-8.094 6.75,-12.156c0.688,-1.563 1.563,-2.938 2.469,-4.281c2.032,-3.375 4.063,-6.532 5.844,-9.688c1.813,-2.938 4.281,-5.625 6.313,-8.313c0.437,-0.687 0.906,-1.124 1.343,-1.343c1.563,-0.906 2.688,-2.25 3.594,-3.594l3.375,-3.812c0.219,-0.438 0.688,-0.688 1.125,-1.125c1.813,-1.125 3.813,-2.469 5.844,-3.594c1.344,-0.688 2.687,-1.563 4.5,-0.438l0.687,0c0.907,-0.906 2.032,0.219 2.938,-0.218c0.906,-0.688 2.031,-0.438 2.937,0.218c0.907,0.438 2.032,0.907 2.688,1.563c2.687,2.25 5.625,4.5 8.312,6.968c1.125,1.344 2.25,2.469 3.594,3.375c0.906,0.438 1.344,1.125 2.031,2.032c1.344,1.562 2.25,3.593 2.25,5.843c0.219,4.5 -0.906,10.813 -1.812,14.844c-0.906,4.063 -2.938,8.094 -4.719,12.156c-0.906,1.563 -1.812,3.157 -2.937,4.719c-0.907,1.344 -1.563,2.688 -3.157,4.063c-0.437,0.906 -1.343,1.125 -2.25,0.687c-2.25,-1.125 -3.812,-2.25 -6.062,-3.375c0.437,-2.031 -2.25,-1.344 -3.375,-2.031c-1.125,-0.688 -2.688,-1.813 -3.594,-2.688c-1.125,-1.812 1.813,-2.468 4.063,-7.437c0.687,-0.906 2.937,-5.844 3.593,-6.75c2.938,-5.188 3.375,-10.125 4.063,-15.75c-0,-0.688 0.219,-2.031 -1.125,-2.25l-0.688,-0l-0.906,0.687c-2.031,1.563 -4.062,2.938 -5.625,4.719l-3.375,3.156c-0.687,0.438 -1.125,1.125 -1.562,1.813c-2.032,3.594 -4.719,6.75 -7.188,10.125c-0.219,0.437 -0.437,1.125 -0.906,1.562c-1.813,1.563 -2.688,3.375 -3.594,5.407c-1.344,2.937 -2.687,5.625 -4.5,8.093c-0.906,1.125 -1.125,2.688 -2.031,3.813c-0.906,1.125 -2.031,2.25 -2.688,3.594c-0.687,1.344 -0.687,2.937 -1.343,4.062c-0.907,2.25 -1.813,4.063 -3.157,6.313c-0.687,1.125 -2.687,8.094 -3.812,10.812c-1.344,2.469 -1.563,5.188 -2.25,7.875c-0.219,-0.219 -0.438,2.031 -1.563,3.813c0,0.437 -0.218,0.906 0,1.125c0.438,1.562 0,2.937 -0.218,4.281c-0.438,4.937 -0.688,10.125 -0.219,15.062c0.219,2.032 1.125,4.063 1.812,6.063c0.219,0.687 0.907,1.125 1.813,1.344c2.687,-0 3.375,0.218 6.062,-0.438c2.938,-0.687 5.407,-1.812 8.094,-2.937c6.75,-2.938 12.375,-7.438 17.781,-12.375l5.188,-5.188c0.437,-0.437 0.906,-1.125 1.344,-1.344c2.25,-0.906 3.375,-2.687 4.5,-4.718l10.812,-13.282c3.594,-6.062 7.656,-11.687 11.688,-17.312c0.687,-0.906 1.343,-1.125 2.031,-0.438c1.562,0.907 2.937,2.032 4.5,2.938c0.687,0.437 1.125,1.125 1.812,1.562c0.75,0.459 1.354,1.136 1.813,2.032c0.687,1.125 1.562,2.031 3.156,1.812c0.438,0 1.125,0.438 1.813,0.688c1.125,0.687 1.343,1.812 0.687,2.937c-2.469,3.375 -4.719,6.969 -6.062,11.031c-1.563,2.032 -2.938,4.063 -4.282,6.063c-0.218,0.437 -0.437,0.906 -0.906,1.125l-5.187,5.844l-6.75,8.093c-0.907,1.344 -2.032,2.688 -3.375,3.594c-0.438,0.219 -0.688,0.688 -0.907,0.906c-1.812,2.688 -4.281,4.719 -6.75,6.75c-3.812,3.157 -7.656,6.532 -11.937,8.782c-3.375,1.812 -6.969,2.937 -10.344,4.5c-1.344,0.687 -3.156,0.906 -4.719,0.906c-5.406,0.437 -8.562,-0.219 -13.281,-2.469l-0.156,-0.062Z" style="fill:#231f20;fill-rule:nonzero;"/><path d="M251.406,230.656c-4.281,-2.031 -8.781,-4.062 -12.812,-6.312c-3.156,-1.563 -5.844,-4.063 -7.656,-7.188c-0.907,-1.562 -2.032,-3.156 -2.688,-4.937c-0.906,-2.688 -1.344,-5.406 -1.344,-8.094c0,-2.031 -0.219,-4.063 0.219,-6.062c0.437,-3.375 0.219,-6.532 1.125,-9.688c0.219,-1.562 0.219,-3.375 0.687,-4.937c0.438,-1.813 0.907,-3.594 1.563,-5.188c0.219,-0.906 0.437,-1.812 0.437,-2.687c-0.218,-1.563 0.219,-3.375 0.438,-4.938c0.687,-2.937 1.344,-6.062 2.687,-8.781c0.219,-0.438 0.438,-1.125 0.438,-1.563c0.906,-5.187 2.937,-9.906 4.719,-14.625c2.031,-6.062 5.187,-11.937 7.656,-17.781c0.438,-0.906 0.906,-1.562 1.563,-2.25c0.906,-1.125 1.812,-2.031 1.812,-3.594c0,-0.687 0.687,-1.343 1.125,-2.031c2.031,-2.687 3.812,-5.187 5.625,-7.875l0.437,-0.687c2.938,-2.688 5.625,-5.625 9.438,-7.188c3.156,-1.344 6.312,-0.687 9.437,0.438c2.032,0.906 3.594,2.25 5.407,3.593c3.812,3.157 7.437,6.532 11.25,9.438c2.468,2.031 3.812,4.281 3.812,7.437l0,0.688c1.563,3.594 0.219,6.969 0,10.344c-1.344,2.937 -1.562,6.312 -3.375,9c-1.562,2.25 -2.687,4.937 -3.812,7.656c-0.907,1.562 -1.563,3.156 -2.688,4.5c-0.687,0.906 -1.562,2.031 -2.031,2.937c-0.438,1.563 -1.813,2.688 -2.688,3.813c-1.812,2.25 -3.375,4.5 -5.406,6.75c-1.562,1.562 -2.937,3.594 -4.937,4.719c-0.688,0.218 -1.125,0.687 -1.344,1.343c-1.344,1.813 -3.156,2.938 -4.938,4.282c-0.687,0.437 -1.343,0.437 -2.25,0.218c-3.812,-1.562 -7.437,-3.593 -11.031,-5.625c-0.687,-0.218 -1.125,-0.687 -1.812,-0.906c-0.219,0 -0.907,0 -0.907,0.438c-0.437,1.125 -0.906,2.468 -1.125,3.593c-0.437,1.344 -0.437,2.938 -1.125,4.282c-0.687,2.25 -1.125,4.718 -1.125,7.187c-0.218,2.25 -0.687,4.719 -1.343,7.188c-0.438,2.687 -1.125,5.187 -0.907,7.875l0,4.062c0,2.469 -0.218,4.938 0,7.438c0.438,4.062 1.125,4.5 5.188,3.375c2.031,-0.438 3.594,-1.344 5.406,-2.25l3.375,-2.032c0.906,-0.437 1.563,-1.125 2.469,-1.812c2.031,-2.25 4.281,-4.281 6.75,-6.313c2.469,-2.25 4.937,-4.718 7.187,-7.187c2.032,-2.031 3.375,-4.281 5.188,-6.531c2.031,-2.25 4.062,-4.282 6.062,-6.75c1.813,-2.25 2.688,-4.5 4.938,-6.75c1.125,-1.125 2.031,-2.469 2.937,-4.063c2.688,-3.812 4.938,-6.75 7.657,-10.344c2.031,-2.687 4.281,-6.312 6.312,-9.218c0.906,-1.125 1.344,-1.125 2.469,-0.219c0.687,0.219 1.125,0.687 1.562,1.125c1.125,1.125 2.469,1.812 3.813,2.687c1.812,1.125 2.25,1.563 4.281,2.938c1.344,0.687 1.813,1.344 2.938,2.25c0.687,0.437 0.687,0.687 -0,1.562c-1.125,1.344 -1.344,3.157 -2.469,4.282c-0.688,0.437 -1.125,1.812 -1.563,2.031c-0.906,0.906 -0.906,2.031 -1.562,3.375c-0.438,1.125 -1.125,2.25 -2.031,3.156l-0.688,0.906c-1.812,3.813 -4.062,6.969 -6.969,9.907c-1.125,2.468 -1.812,4.281 -3.812,6.062c-2.688,2.938 -4.281,6.063 -6.969,8.781c-0.906,0.907 -1.562,1.563 -2.469,2.25c-0.906,0.438 -1.812,0.438 -2.468,1.125c-0.438,0.438 -0.438,1.563 -1.125,2.032c-1.125,0.687 -1.813,1.562 -1.813,3.156c0,0.437 -0.437,0.906 -0.906,1.125c-4.5,4.5 -8.781,8.781 -13.719,12.594c-2.687,2.25 -6.062,3.593 -9.437,4.5c-1.813,0.687 -3.813,0.437 -5.625,0.218c-2.469,-0.687 -5.188,-1.125 -7.438,-2.25Zm3.157,-64.812c0.218,-0 0.218,-0.219 0.218,-0.219c4.063,-3.813 9,-6.531 11.688,-11.25l1.344,-2.031c2.25,-2.938 4.062,-6.313 5.625,-9.688c1.125,-2.25 2.25,-4.281 3.593,-6.531c2.938,-4.719 3.813,-10.813 4.282,-16.437c-0,-0 -0.438,-0.907 -0.688,-0.907c-0.219,-0.218 -0.437,0 -0.687,0l-0.438,0c-4.062,2.688 -7.437,5.844 -9.906,9.906c-3.594,6.063 -7.438,12.157 -10.344,18.907c-0.687,2.031 -1.812,3.812 -2.469,5.625c-0.906,2.031 -1.344,4.281 -2.25,6.75c-0.218,1.343 -0.906,2.937 -1.562,4.718c-0.219,0.219 -0.688,1.563 -0.438,1.813c0.438,0.438 1.563,-0.438 2.032,-0.688l-0,0.032Z" style="fill:#231f20;fill-rule:nonzero;"/><path d="M35.906,20.406l-12.843,0l-0,-5.062l31.062,-0l0,5.062l-12.813,0l0.001,34.75l-5.407,0l0,-34.75Z" style="fill:#fff;fill-rule:nonzero;"/><path d="M64.219,15.344l25.718,-0l0,5.062l-20.312,0l-0,11.875l18.906,0l0,5.063l-18.906,-0l-0,12.781l21.312,0l0,5.063l-26.718,-0l-0,-39.844Z" style="fill:#fff;fill-rule:nonzero;"/><path d="M117.031,15.344l4.938,-0l17.031,39.812l-6.313,0l-4,-9.843l-18.968,-0l-3.938,9.843l-6.312,0l17.562,-39.812Zm9.719,25.25l-7.438,-18.282l-0.124,0l-7.532,18.282l15.094,-0Z" style="fill:#fff;fill-rule:nonzero;"/><path d="M148.562,15.344l8.094,-0l12.656,30.156l0.219,0l12.531,-30.156l8.032,-0l-0,39.812l-5.407,0l0,-32.75l-0.125,0l-13.437,32.75l-3.594,0l-13.437,-32.75l-0.125,0l-0,32.75l-5.407,0l0,-39.812Z" style="fill:#fff;fill-rule:nonzero;"/><path d="M257,400.188c-5.5,-4.5 -10.5,-9 -15.5,-14c-3.5,-3.5 -6.5,-7.5 -8,-12c-0.5,-2 -0.5,-4 0.5,-6c1,-2.5 2.5,-5 4.5,-7c6.5,-5 10.5,-12 14.5,-19c9.5,-13.5 18.5,-28 29,-40.5l3,-4.5l29,-39c3,-4.5 5.5,-9 9,-12.5l2.5,-3c4.5,-9 11.5,-18 17,-27c8.5,-12 17,-25 25.5,-37.5c4,-5.5 7,-11.5 11.5,-17c5.5,-9.5 11,-19 15.5,-28.5c5.5,-10 11.5,-27.5 13.5,-38.5c0.5,-2.5 0.5,-5.5 0.5,-8.5c3.5,-9 3.5,-18.5 0.5,-28.5c-0,-3.5 -1,-7 -1,-11c0,-0.5 -0.5,-1.5 -1.5,-1.5c-2.5,-1 -5,-2.5 -8,-2.5c-7.5,-0 -15,-0 -22.5,-0.5c-2,-0 -3.5,0.5 -5,1c-5.5,2.5 -10.5,3.5 -16,6.5c-2.5,1.5 -5,3 -8,3.5c-4,1 -7.5,3 -11,6.5l-1,1c-6.5,2.5 -11.5,7.5 -17,11.5c-4.5,3.5 -8,7 -11.5,11.5c-4.5,5 -7.5,10.5 -10.5,16c-3.5,6.5 -4,14 -1,21.5c0.5,1 2,2 0.5,3c-1,-0 -1.5,-2 -2.5,-2.5c-5,-6 -9,-12 -14,-18.5c-5,-8 -8.5,-17 -8,-26.5c-0.5,-12.5 4,-23 14,-31c1.5,-1.5 3.5,-3 4.5,-5c5.5,-6.5 12.5,-12 19.5,-17c3,-2.5 6,-4.5 10,-6c2.5,-0.5 4.5,-2 7,-3.5l12,-6.5c3.5,-2 7.5,-2 11,-3.5c4,-2 8,-2 12,-3c6.5,-1 13.5,-0.5 20,1.5l12.5,3.5c1,0.5 2,1.5 3,2.5c4.5,4 8,8 11,13.5c6,12 12,23.5 17.5,35.5c3.5,8.5 8.5,16 8.5,25c0,5 1,9.5 1.5,14.5c-0.5,4.5 -0.5,9 -0.5,13.5c-0.5,5.5 -2.5,11.5 -3,17c-1,5 -1.5,10 -2.5,15c-2,5.5 -3.5,10.5 -6,15c-3,6 -6.5,12 -8,19c-2,4.5 -4.5,8.5 -8,10.5c-2.5,2 -3.5,4 -3,7c-0.5,1.5 -1.5,3.5 -3,5.5c-4,7.5 -9,15.5 -14.5,22c-1,1.5 -1.5,3 -2,4.5c-3,7 -8,13 -12.5,18.5l-4.5,7.5l-1,1.5c-5,5 -7.5,12 -11.5,17.5c-1,2 -1.5,4.5 -3.5,5.5c-1.5,1 -2,2 -2.5,3c-2.5,6.5 -6.5,12 -11,17c-1.5,2.5 -3.5,4.5 -4.5,7.5l-3,4c-5,7 -10,13.5 -15,20l-1,1.5c0,1 0.5,2.5 2,2.5c5.5,0.5 21,3.5 27,4.5c9.5,1.5 19,3.5 28,6.5c6,2.5 12,4 17.5,6.5c7.5,3.5 14,7.5 17.5,15l3,3l2,3c2.5,3 3.5,6 5,9.5c1.5,3.5 5,4.5 6.5,8.5l0,1c-0.5,-0 -1,0.5 -1.5,-0l-0.5,-0c-6,-4 -13,-5 -19.5,-7.5c-9.5,-3 -19,-5.5 -28.5,-7c-6.5,-2 -13,-2.5 -19.5,-3c-5.5,-0 -11,-0 -26.5,-2c-13,-0.5 -25,3 -36.5,9c-6.5,4 -13,8.5 -18.5,14c-2.5,3 -4,6 -6.5,9c-2,3 -3.5,3 -6.5,1c-1,-0.5 -2,-2 -2.5,-2.5Z" style="fill:#aa1e30;fill-rule:nonzero;"/><path d="M429.312,391.813c-3.156,-0.907 -6.312,-2.25 -9.437,-3.594c-1.125,-0.438 -2.25,-1.563 -3.375,-2.688c-0.906,-0.906 -1.344,-2.031 -0.688,-3.375l0.907,-4.281l2.468,-7.188l1.563,-7.656c0.906,-3.156 1.562,-6.312 2.25,-9.437c0.437,-1.344 1.344,-2.25 1.562,-3.813c0.438,-1.125 0.219,-2.469 0.688,-3.812c1.812,-6.75 4.062,-13.5 5.844,-20.032c2.031,-7.656 3.812,-15.312 5.843,-22.718l3.375,-12.813c1.125,-4.281 2.25,-8.562 3.594,-13.062c0.906,-3.157 1.813,-6.532 2.469,-9.438l-0,-0.437c2.031,-5.844 3.156,-12.157 4.719,-18l9,-31.282c0.437,-0.906 0.687,-2.031 0.906,-2.937c0.437,-1.344 2.031,-1.563 2.937,-0.438c1.563,2.032 3.813,3.375 5.407,5.407c2.25,2.031 3.812,4.5 5.843,6.75c0.907,0.687 0.907,1.562 0.438,2.468c-0.688,2.25 -1.125,4.5 -2.031,6.75c-1.125,3.375 -2.469,6.969 -3.375,10.563l-0.688,2.469c-0.437,2.687 -1.812,4.718 -2.937,6.75c-0.219,0.437 -0.688,0.687 -1.125,1.125c-0.219,0.218 -0.219,0.437 -0,0.687c0.437,0.438 0.687,1.125 1.125,1.563c-0.907,1.344 -0.219,2.687 -0.907,4.062c-0.906,2.25 -1.125,4.5 -1.812,6.75c-0.906,4.063 -2.031,8.094 -3.375,11.938c-0.438,1.343 -0.438,2.937 -0.906,4.5c-0.907,4.062 -2.25,8.312 -3.157,12.375c-0.437,2.25 -0.687,4.281 -1.562,6.312c-0.438,1.125 -1.125,5.625 -1.344,6.969l0.219,0.219c0.219,-0 0.437,-0 0.687,-0.219c2.938,-3.813 7.188,-10.563 9.907,-14.844c0.687,-1.125 1.812,-2.469 3.156,-2.687c0.687,-0.438 1.125,-1.125 1.344,-1.813c0.218,-1.344 1.125,-2.469 2.031,-3.375l0.687,-0.687c2.938,-4.719 7.657,-8.094 11.938,-11.688c0.687,-0.437 1.344,-0.906 1.812,-1.562c1.563,-2.688 4.063,-4.282 6.313,-6.313c1.562,-1.812 3.594,-2.687 5.844,-3.812c1.812,-0.688 2.937,-0.219 4.062,0.906c2.938,2.938 6.063,5.188 9.219,8.313c0.906,0.906 1.812,1.562 2.469,2.468c1.343,0.906 2.031,2.031 2.687,3.375c0.219,0.219 0.438,0.906 0.219,1.344c0.437,3.813 -0.438,7.438 -1.813,11.031l-2.031,5.406c-0.437,2.469 -1.562,4.938 -2.687,7.188c-1.563,2.469 -2.25,4.938 -3.594,7.188c-1.125,3.375 -1.813,7.187 -3.813,9.906c-0.687,0.906 -0.906,2.031 -1.343,2.937c-0.907,1.813 -1.813,3.594 -2.25,5.625c-0,0.438 -0,0.688 -0.219,1.125c-0.688,2.031 -2.031,3.594 -2.688,5.844c-0.218,2.25 -1.125,4.281 -2.25,6.313c-0.687,1.812 -1.343,3.812 -1.562,5.843c-0.688,3.813 -2.031,7.438 -2.469,11.25c0,1.344 -0.687,2.469 -1.125,3.813c-0.687,2.25 -1.125,4.5 -1.562,6.75c-0,0.906 -0,1.812 0.218,2.687c0.688,-0.437 1.344,-0.906 2.032,-1.562c1.812,-2.031 3.375,-4.063 5.406,-6.531c4.062,-4.938 7.656,-10.125 11.25,-15.532c0.906,-1.125 1.562,-2.25 2.687,-3.594c0.688,-1.343 1.344,-2.687 2.25,-4.062c0.438,-0.688 5.407,-8.563 6.063,-9c1.812,-1.813 3.594,-5.625 4.937,-7.437c0.219,-0.438 0.688,-0.907 1.125,-1.344c0.438,-0.219 0.907,-0.438 1.344,-0c2.25,1.125 4.281,2.469 6.313,3.812c0.437,0.219 0.687,0.688 0.906,1.125c0.687,1.813 1.344,2.469 2.937,2.469c1.344,0.219 2.25,0.438 3.157,1.125c1.812,1.125 2.031,2.031 1.125,3.813c-0.438,0.906 -1.125,1.562 -1.813,2.25c-2.937,4.5 -9,14.843 -11.25,17.781c0,0.219 -0.219,0.219 -0.219,0.437c-0.687,2.25 -2.468,4.063 -3.593,5.844l-4.063,5.406c-1.125,1.563 -2.25,2.938 -3.375,4.719c-1.125,1.812 -2.25,3.375 -3.812,4.719c-0.688,0.437 -1.344,1.125 -2.032,1.125c-1.562,-0 -1.125,1.125 -1.562,2.468c-0.438,1.344 -1.563,2.032 -2.469,2.688c-0.219,0.437 -0.687,0.687 -1.125,0.687c-1.562,0 -2.687,0.438 -3.156,2.032c-0.219,0.218 -0.438,0.218 -0.438,0.437c-2.937,3.375 -6.062,4.063 -10.343,2.688l-12.594,-4.719c-4.719,-2.031 -6.969,-5.844 -8.313,-10.125c-0.218,-0.906 -0.218,-1.813 -0.218,-2.688c-0,-2.687 0.437,-5.187 0.437,-7.875c0,-2.468 0.688,-4.937 1.344,-7.187l3.375,-12.594c0.219,-1.812 1.125,-3.156 1.562,-4.937c0.907,-3.594 2.469,-6.75 3.157,-10.563c-0,-0.437 -0,-0.687 0.218,-1.125l6.75,-16.875c0.688,-1.562 1.563,-3.156 1.813,-4.719c0.687,-1.343 1.562,-2.937 2.25,-4.5l1.812,-4.281c0,-0.219 0,-0.437 -0.218,-0.906c-0.688,-0.219 -0.438,0.687 -0.907,0.687c-0.218,0.219 -0.687,0.438 -0.906,0.907c-0.437,0.687 -0.906,1.343 -1.812,1.562c-0.907,0.219 -1.125,0.688 -1.125,1.125c-0.219,1.813 -1.563,2.688 -2.469,4.063c-0.688,0.906 -1.563,1.562 -2.25,2.031c-1.125,1.812 -2.469,3.375 -3.375,5.406c-0.906,2.031 -2.938,3.375 -4.281,5.188c-1.125,1.125 -2.032,2.25 -2.688,3.375c-0.437,0.687 -0.906,1.343 -1.562,1.812c-1.125,0.906 -2.032,2.031 -2.25,3.594c-0.219,1.562 -1.125,2.937 -2.25,3.594c-1.344,0.906 -2.032,2.031 -2.688,2.937c-0.437,0.438 -0.687,0.906 -0.687,1.344c-1.125,4.719 -4.719,8.312 -6.75,12.594c-0.219,0.437 -0.688,0.687 -0.907,1.125l-4.5,8.093l-4.281,8.313c-2.031,3.812 -3.594,7.875 -5.625,11.469c-0.906,1.343 -1.562,3.156 -1.812,4.718c-0.688,1.813 -1.344,3.594 -1.813,5.407c-0.687,1.125 -0.906,2.468 -1.344,3.593c-0.218,1.125 -1.125,1.563 -2.25,1.344l-2.687,-0.687l-0.063,-0.031Z" style="fill:#231f20;fill-rule:nonzero;"/><path d="M540.906,389.813c-4.281,-2.032 -8.781,-4.063 -12.812,-6.313c-3.157,-1.563 -5.844,-4.063 -7.657,-7.188c-0.906,-1.562 -2.031,-3.156 -2.687,-4.937c-0.906,-2.688 -1.344,-5.406 -1.344,-8.094c0,-2.031 -0.218,-4.062 0.219,-6.062c0.437,-3.375 0.219,-6.532 1.125,-9.688c0.219,-1.562 0.219,-3.375 0.688,-4.937c0.437,-1.813 0.906,-3.594 1.562,-5.188c0.219,-0.906 0.438,-1.812 0.438,-2.687c-0.219,-1.563 0.218,-3.375 0.437,-4.938c0.687,-2.937 1.344,-6.062 2.688,-8.781c0.218,-0.438 0.437,-1.125 0.437,-1.563c0.906,-5.187 2.937,-9.906 4.719,-14.625c2.031,-6.062 5.187,-11.937 7.656,-17.781c0.437,-0.906 0.906,-1.562 1.562,-2.25c0.907,-1.125 1.813,-2.031 1.813,-3.594c-0,-0.687 0.687,-1.343 1.125,-2.031c2.031,-2.687 3.812,-5.187 5.625,-7.875l0.437,-0.687c2.938,-2.688 5.625,-5.625 9.438,-7.188c3.156,-1.344 6.313,-0.687 9.438,0.438c2.031,0.906 3.593,2.25 5.406,3.593c3.812,3.157 7.437,6.532 11.25,9.438c2.468,2.031 3.812,4.281 3.812,7.437l0,0.688c1.563,3.594 0.219,6.969 0,10.344c-1.344,2.937 -1.562,6.312 -3.375,9c-1.562,2.25 -2.687,4.937 -3.812,7.656c-0.907,1.562 -1.563,3.156 -2.688,4.5c-0.687,0.906 -1.562,2.031 -2.031,2.937c-0.438,1.563 -1.813,2.688 -2.688,3.813c-1.812,2.25 -3.375,4.5 -5.406,6.75c-1.562,1.562 -2.937,3.594 -4.937,4.719c-0.688,0.218 -1.125,0.687 -1.344,1.343c-1.344,1.813 -3.156,2.938 -4.938,4.282c-0.687,0.437 -1.343,0.437 -2.25,0.218c-3.812,-1.562 -7.437,-3.593 -11.031,-5.625c-0.687,-0.218 -1.125,-0.687 -1.812,-0.906c-0.219,0 -0.907,0 -0.907,0.438c-0.437,1.125 -0.906,2.468 -1.125,3.593c-0.437,1.344 -0.437,2.938 -1.125,4.282c-0.687,2.25 -1.125,4.718 -1.125,7.187c-0.218,2.25 -0.687,4.719 -1.343,7.188c-0.438,2.687 -1.125,5.187 -0.907,7.875l0,4.062c0,2.469 -0.218,4.938 0,7.438c0.438,4.062 1.125,4.5 5.188,3.375c2.031,-0.438 3.594,-1.344 5.406,-2.25l3.375,-2.031c0.906,-0.438 1.563,-1.125 2.469,-1.813c2.031,-2.25 4.281,-4.281 6.75,-6.313c2.469,-2.25 4.937,-4.718 7.187,-7.187c2.032,-2.031 3.375,-4.281 5.188,-6.531c2.031,-2.25 4.062,-4.282 6.062,-6.75c1.813,-2.25 2.688,-4.5 4.938,-6.75c1.125,-1.125 2.031,-2.469 2.937,-4.063c2.688,-3.812 4.938,-6.75 7.657,-10.344c2.031,-2.687 4.281,-6.312 6.312,-9.218c0.906,-1.125 1.344,-1.125 2.469,-0.219c0.687,0.219 1.125,0.687 1.562,1.125c1.125,1.125 2.469,1.812 3.813,2.687c1.812,1.125 2.25,1.563 4.281,2.938c1.344,0.687 1.813,1.344 2.938,2.25c0.687,0.437 0.687,0.687 -0,1.562c-1.125,1.344 -1.344,3.157 -2.469,4.282c-0.688,0.437 -1.125,1.812 -1.563,2.031c-0.906,0.906 -0.906,2.031 -1.562,3.375c-0.438,1.125 -1.125,2.25 -2.031,3.156l-0.688,0.906c-1.812,3.813 -4.062,6.969 -6.969,9.907c-1.125,2.469 -1.812,4.281 -3.812,6.062c-2.688,2.938 -4.281,6.063 -6.969,8.781c-0.906,0.907 -1.562,1.563 -2.469,2.25c-0.906,0.438 -1.812,0.438 -2.468,1.126c-0.438,0.437 -0.438,1.562 -1.125,2.031c-1.125,0.687 -1.813,1.562 -1.813,3.156c0,0.438 -0.437,0.906 -0.906,1.125c-4.5,4.5 -8.781,8.781 -13.719,12.594c-2.687,2.25 -6.062,3.594 -9.437,4.5c-1.813,0.687 -3.813,0.437 -5.625,0.219c-2.469,-0.688 -5.188,-1.125 -7.438,-2.25Zm3.157,-64.813c0.218,0 0.218,-0.219 0.218,-0.219c4.063,-3.812 9,-6.531 11.688,-11.25l1.344,-2.031c2.25,-2.938 4.062,-6.313 5.625,-9.688c1.125,-2.249 2.25,-4.281 3.593,-6.531c2.938,-4.719 3.813,-10.812 4.282,-16.437c-0,-0 -0.438,-0.906 -0.688,-0.906c-0.219,-0.219 -0.437,-0 -0.687,-0l-0.438,-0c-4.062,2.687 -7.437,5.843 -9.906,9.906c-3.594,6.062 -7.438,12.156 -10.344,18.906c-0.687,2.031 -1.812,3.813 -2.469,5.625c-0.906,2.031 -1.343,4.281 -2.25,6.75c-0.218,1.344 -0.906,2.937 -1.562,4.719c-0.219,0.218 -0.688,1.562 -0.438,1.812c0.438,0.438 1.563,-0.437 2.032,-0.687l-0,0.031Z" style="fill:#231f20;fill-rule:nonzero;"/><path d="M607.719,396.562c-4.063,-1.125 -6.75,-2.25 -10.813,-3.593c-2.937,-1.125 -5.187,-3.156 -7.187,-5.625c-2.25,-2.688 -3.594,-5.844 -3.375,-9.438c-0,-2.25 -0.438,-4.281 -0.688,-6.312c-0.219,-2.032 0.688,-3.813 0.688,-5.625c-0,-5.625 1.125,-11.032 2.468,-16.438c0.688,-4.062 1.563,-7.875 2.25,-11.937c0.688,-3.157 1.563,-6.313 2.25,-9.688c0.688,-3.156 1.813,-6.312 2.469,-9.437c0.688,-4.063 2.031,-7.875 2.688,-11.938c0.906,-4.719 2.25,-9.437 3.375,-14.406c1.562,-6.75 3.156,-13.5 5.187,-20.031c2.469,-8.094 11.031,-45.688 13.281,-53.563c0.438,-1.562 0.438,-3.156 1.125,-4.5c0.438,-0.906 -0.218,-1.812 -0.437,-2.687c-0.438,-1.344 0.437,-2.938 1.813,-3.375l0.687,-0c0.688,0.437 1.125,0.687 1.563,1.125c3.156,2.687 6.531,4.718 9,8.093c0.687,0.907 1.812,1.563 2.937,2.469c0.688,0.688 0.906,1.563 0.906,2.469c-0.218,0.906 2.032,3.375 1.813,4.281c-0.906,3.594 -0.438,7.438 -1.344,11.25c-1.125,4.5 -2.031,9.219 -4.062,20.25c-1.344,3.813 -3.157,7.875 -4.063,11.938c0,0.219 -0.219,0.437 -0.437,0.687c-0.438,1.125 -1.344,2.469 -1.344,3.594c-0,1.125 -0.438,2.25 -0.688,3.375c-0.687,2.688 -1.125,5.625 -2.468,8.094c-0.688,0.906 -0,1.562 -0.219,2.469c-1.344,4.937 -4.063,8.312 -5.188,13.062c0,0.438 -0.437,0.906 -0.437,1.125c0.219,3.156 -2.469,5.844 -2.688,8.781c0,0.438 -0.218,0.907 -0.218,1.563c-0.688,1.125 -0.688,2.25 -0.907,3.594c-0.437,1.812 -0.437,3.593 -1.562,5.187c-0.438,0.438 -0.438,1.125 -0.438,1.813c0.219,3.156 -0.687,6.062 -1.562,9c-0.438,2.468 -0.906,4.937 -1.813,7.187c-0.437,1.344 0.219,2.469 -0.437,3.813c-0.438,0.906 -0.688,2.25 -0.906,3.375l-0.688,3.593c-0.219,0.688 -0.219,1.344 -0.437,2.032c-1.125,3.156 -1.125,6.531 -2.032,9.687c-0.687,2.469 -0.437,4.938 -0.906,7.438c-0.437,3.156 -0.219,6.312 -0.437,9.437l-0,3.156c-0,0.688 -0.438,1.813 0.687,2.032c0.688,-0 0.906,-0.907 1.344,-1.344c3.594,-3.594 5.844,-7.656 8.312,-12.156c1.125,-2.25 2.469,-4.719 4.282,-6.75c0.906,-1.125 1.343,-2.25 1.562,-3.594c0,-1.813 1.813,-3.156 2.469,-4.5c0.906,-1.813 1.125,-3.375 2.031,-5.188l0.688,-0.906c1.812,-1.125 3.812,-5.625 4.5,-7.437c0.906,-2.032 1.562,-4.063 2.468,-6.063l2.032,-4.719c0.437,-1.562 1.125,-3.156 1.812,-4.5c0.688,-1.343 1.125,-2.468 1.813,-3.593c0.906,-1.563 1.562,-1.813 3.156,-0.907c3.594,1.563 5.625,3.157 9.219,4.938c1.343,0.687 2.468,1.344 3.593,2.031c1.125,0.688 1.125,1.125 0.688,2.469c-0.219,0.437 -0.438,1.125 -0.906,1.562c-1.344,2.469 -2.688,4.938 -3.375,7.875c-0.438,1.563 -1.125,3.375 -2.688,4.5c-0.906,0.907 -0.906,2.032 -0.906,2.938c-1.563,2.687 -2.688,7.187 -4.063,9.219c-0.906,1.343 -1.812,2.687 -2.468,4.5c-0.219,1.125 -0.907,2.25 -1.563,3.375l-6.969,13.718l-1.562,2.032c-0.438,0.687 -1.344,1.562 -1.563,2.468c-0.218,1.813 -1.343,2.688 -2.25,4.063l-4.062,5.187c-2.469,2.688 -5.406,4.5 -9.219,4.282l-1.344,-0c-1.125,-0 -2.687,-0.219 -4.281,-0.907l-0.156,0.031Z" style="fill:#231f20;fill-rule:nonzero;"/><path d="M614.469,426.937c-0.438,-0.218 -1.125,-0.437 -1.563,-0.906c-2.937,-2.469 -4.281,-3.812 -2.687,-7.656c1.125,-2.688 1.812,-5.406 2.687,-8.313c1.344,-4.499 2.688,-9.218 3.594,-13.718c1.125,-6.75 4.937,-20.031 6.969,-26.563c1.812,-5.625 3.375,-10.812 5.625,-16.187c1.343,-3.375 2.25,-7.188 3.593,-11.031c0.438,-1.125 0.688,-2.25 1.125,-3.157c1.125,-2.031 1.563,-4.062 1.813,-6.312c0.219,-2.031 0.906,-4.063 1.344,-6.063c1.343,-4.062 2.031,-8.562 3.375,-12.812c1.562,-4.938 2.468,-9.438 3.812,-14.188c0.688,-2.469 0.906,-4.937 1.563,-7.437c1.343,-4.5 1.812,-9 3.593,-13.719c0.688,-1.812 1.126,-3.812 1.344,-5.625c0.219,-2.469 1.125,-4.5 2.032,-6.969c-0,-0.437 0.218,-1.125 0.437,-1.343c0.906,-0.907 1.125,-1.813 1.125,-2.938c0,-1.812 0.906,-3.594 1.344,-5.187c0.437,-0.907 1.812,-1.125 2.687,-0.438c1.125,0.906 1.813,2.469 2.688,3.156c0.687,0.438 1.125,0.688 1.812,0.688c1.344,-0 2.469,0.437 3.375,1.125c2.25,1.562 4.282,2.937 6.532,4.719c0.437,0.218 0.906,0.687 0.687,1.343c-0.688,2.25 -1.344,4.719 -2.937,6.532l-0.688,1.562c0.219,2.688 -0.687,5.406 -1.813,7.875c-0.218,1.344 -0.687,2.688 -1.125,4.063c-0.218,0.906 -0.218,2.031 0.219,3.156c0.688,-0 1.125,-0.688 1.563,-1.125l9.437,-12.813c0.438,-0.437 0.688,-0.906 1.125,-0.906c2.938,-1.812 5.188,-3.812 7.875,-5.844c2.032,-1.562 4.719,-2.031 7.438,-0.687c5.187,3.375 10.562,6.531 15.531,10.125c1.813,1.344 3.375,2.937 4.063,5.187c0.687,1.563 0.437,2.938 0.687,4.5c0.219,1.344 0,2.938 0.438,4.5c0.218,0.907 1.562,1.813 1.343,2.688c-0.906,2.031 -0.687,4.062 -1.562,6.062c-0.219,0.438 -0.219,0.907 -0.219,1.563c0,1.812 -0.437,3.156 -2.25,4.062c-0.219,0.219 -0.437,0.688 -0.219,0.907c1.344,1.343 2.032,3.156 1.563,4.5c-0.906,3.593 -3.594,11.687 -4.5,15.312c-1.344,5.406 -3.594,10.813 -5.625,15.969c-0.438,2.031 -1.344,4.062 -2.469,5.625c-1.125,1.344 -1.125,3.156 -1.562,4.719c-0.438,1.125 -0.688,2.468 -1.344,3.593l-1.344,2.938c-0.437,1.812 -1.562,3.594 -2.687,5.406c-1.344,1.563 -2.032,3.156 -2.938,4.938c-1.344,3.156 -3.156,5.843 -6.312,7.656c-0.907,0.219 -1.344,1.125 -1.813,1.812c-0.687,1.344 -2.031,1.813 -3.156,2.469c-2.031,1.125 -6.313,2.25 -8.781,2.469c-3.375,0.219 -6.063,0.437 -8.782,-0.688c-4.062,-1.562 -7.875,-2.937 -11.468,-4.718c-1.344,-0.219 -2.469,-0.907 -3.594,-1.813c-0.906,-0.219 -1.125,-1.562 -2.031,-1.125c-1.344,0 -1.563,1.344 -2.032,2.469l-3.812,12.156c-0.219,1.562 -1.125,3.156 -1.563,4.719c-1.812,6.531 -3.812,12.812 -5.625,19.343c-1.125,4.063 -2.25,8.094 -3.812,12.157c-0.438,0.906 -0.906,1.812 -1.125,2.468c-0.438,0.688 -0.906,0.907 -1.813,0.438c-3.812,-1.344 -7.656,-2.938 -11.25,-4.719l0.063,0.031Zm43.875,-53.343c2.468,-0.906 6.968,-2.469 9,-4.719c4.062,-3.813 7.656,-7.656 9.437,-13.063l0,-0.437c2.031,-2.937 3.375,-6.313 4.719,-9.438c0.687,-2.468 1.812,-4.937 2.937,-7.437c3.594,-7.875 7.188,-20.688 9.907,-28.344c0.906,-2.469 0.437,-4.281 0.906,-6.75c0.437,-2.687 1.344,-5.406 2.031,-8.312c0.438,-2.25 -0.687,-4.5 -0.437,-6.75c0.218,-0.219 0.218,-0.688 0.218,-0.688c-0.218,-0.218 -0.687,-0.218 -0.687,0c-2.031,1.125 -3.375,2.938 -5.188,4.063c-0.687,-0 -1.125,0.437 -1.343,1.125c-0.438,1.125 -1.344,2.031 -2.469,2.937c-1.563,1.125 -2.688,2.688 -3.594,4.5l-0.687,1.344l-7.188,9c-2.031,2.688 -6.062,9.688 -7.437,12.594c-1.125,2.25 -2.25,4.5 -3.813,6.312c-1.125,1.344 -2.031,2.938 -2.937,4.5c-0.219,0.438 -0.438,0.907 -0.438,1.344c0,1.344 -0.906,2.469 -1.344,3.594c-1.343,3.594 -3.156,6.969 -4.5,10.812c-0.437,1.125 -0.906,2.25 -2.031,2.938c-0.687,0.219 -0.906,1.125 -1.125,2.031l-0.687,3.156l-0.438,1.344c0,1.344 0.219,2.031 1.125,2.469c0.907,0.437 1.344,1.125 2.032,1.344c1.125,0.687 1.343,1.343 1.343,2.25l-0.218,2.031c-0.219,2.031 0.437,3.812 0.687,5.625c0.219,0.906 0.906,1.344 1.813,0.906c0.145,0 0.291,-0.073 0.437,-0.219l-0.031,-0.062Z" style="fill:#231f20;fill-rule:nonzero;"/></svg>